<?xml version="1.0" standalone="no"?>
<!DOCTYPE svg PUBLIC "-//W3C//DTD SVG 20010904//EN"
 "http://www.w3.org/TR/2001/REC-SVG-20010904/DTD/svg10.dtd">
<svg version="1.0" xmlns="http://www.w3.org/2000/svg"
 width="1833.000000pt" height="1390.000000pt" viewBox="0 0 1833.000000 1390.000000"
 preserveAspectRatio="xMidYMid meet">

<g transform="translate(0.000000,1390.000000) scale(0.100000,-0.100000)"
fill="#000000" stroke="none">
<path d="M4198 13773 c-66 -3 -88 -7 -88 -17 0 -11 -37 -16 -170 -21 -126 -6
-170 -11 -170 -20 0 -18 -33 -25 -120 -25 -88 0 -120 -7 -120 -26 0 -11 -19
-14 -85 -14 -78 0 -85 -2 -85 -20 0 -18 -7 -20 -65 -20 -58 0 -65 -2 -65 -20
0 -18 -7 -20 -61 -20 -51 0 -62 -3 -66 -19 -4 -14 -18 -20 -64 -25 -39 -5 -59
-11 -59 -20 0 -14 -42 -26 -91 -26 -22 0 -29 -5 -29 -20 0 -17 -7 -20 -45 -20
-38 0 -45 -3 -45 -20 0 -18 -7 -20 -55 -20 -48 0 -55 -2 -55 -20 0 -14 -7 -20
-22 -20 -38 0 -68 -12 -68 -25 0 -7 -18 -15 -40 -19 -25 -4 -40 -12 -40 -21 0
-9 -16 -16 -45 -21 -35 -5 -45 -10 -45 -25 0 -12 -7 -19 -19 -19 -10 0 -21 -9
-24 -20 -4 -16 -14 -20 -46 -20 -34 0 -41 -3 -41 -20 0 -17 -7 -20 -40 -20
-33 0 -40 -3 -40 -20 0 -13 -7 -20 -20 -20 -13 0 -20 -7 -20 -19 0 -14 -10
-20 -40 -25 -26 -4 -40 -11 -40 -21 0 -9 -9 -15 -21 -15 -12 0 -23 -8 -26 -20
-4 -14 -17 -22 -44 -26 -29 -5 -39 -11 -39 -25 0 -12 -7 -19 -20 -19 -13 0
-20 -7 -20 -20 0 -17 -7 -20 -40 -20 -33 0 -40 -3 -40 -20 0 -13 -7 -20 -20
-20 -13 0 -20 -7 -20 -20 0 -14 -7 -20 -21 -20 -12 0 -23 -8 -26 -19 -3 -11
-13 -21 -24 -24 -10 -3 -19 -12 -19 -21 0 -11 -13 -18 -40 -22 -30 -5 -40 -11
-40 -25 0 -12 -7 -19 -20 -19 -13 0 -20 -7 -20 -20 0 -13 -7 -20 -20 -20 -13
0 -20 -7 -20 -20 0 -14 -7 -20 -21 -20 -12 0 -23 -8 -26 -19 -3 -11 -13 -21
-24 -24 -11 -3 -19 -14 -19 -26 0 -14 -6 -21 -20 -21 -13 0 -20 -7 -20 -20 0
-13 -7 -20 -20 -20 -13 0 -20 -7 -20 -20 0 -13 -7 -20 -20 -20 -13 0 -20 -7
-20 -20 0 -13 -7 -20 -20 -20 -13 0 -20 -7 -20 -19 0 -13 -8 -21 -22 -23 -15
-2 -24 -11 -26 -25 -2 -15 -10 -23 -23 -23 -12 0 -19 -7 -19 -20 0 -13 -7 -20
-20 -20 -17 0 -20 -7 -20 -40 0 -33 -3 -40 -20 -40 -13 0 -20 -7 -20 -20 0
-14 -7 -20 -21 -20 -12 0 -23 -8 -26 -20 -3 -11 -11 -20 -18 -20 -8 0 -15 -10
-17 -22 -2 -15 -11 -24 -26 -26 -18 -3 -22 -10 -22 -37 0 -24 -5 -34 -20 -38
-12 -3 -20 -14 -20 -26 0 -14 -6 -21 -20 -21 -15 0 -20 -7 -20 -25 0 -18 -5
-25 -20 -25 -16 0 -20 -7 -20 -35 0 -28 -4 -35 -20 -35 -15 0 -20 -7 -20 -25
0 -18 -5 -25 -19 -25 -15 0 -21 -10 -26 -40 -5 -30 -11 -40 -26 -40 -16 0 -19
-7 -19 -40 0 -33 -3 -40 -20 -40 -15 0 -20 -7 -20 -25 0 -18 -5 -25 -20 -25
-17 0 -20 -7 -20 -40 0 -33 -3 -40 -20 -40 -17 0 -20 -7 -20 -40 0 -32 -4 -40
-19 -40 -14 0 -20 -10 -25 -40 -4 -25 -12 -40 -21 -40 -9 0 -16 -16 -21 -45
-5 -35 -10 -45 -25 -45 -15 0 -19 -7 -19 -39 0 -30 -4 -40 -20 -44 -17 -4 -20
-14 -20 -61 0 -49 -2 -56 -20 -56 -17 0 -20 -7 -20 -45 0 -38 -3 -45 -20 -45
-16 0 -20 -7 -20 -37 0 -53 -10 -83 -26 -83 -9 0 -14 -12 -14 -34 0 -53 -11
-96 -25 -96 -14 0 -25 -43 -25 -96 0 -22 -5 -34 -14 -34 -16 0 -26 -43 -26
-111 0 -35 -4 -49 -14 -49 -16 0 -26 -43 -26 -116 0 -39 -4 -54 -14 -54 -18 0
-26 -45 -26 -156 0 -87 -1 -94 -20 -94 -19 0 -20 -7 -20 -167 0 -259 -10 -423
-27 -423 -9 0 -13 -13 -13 -40 0 -27 4 -40 14 -40 17 0 26 -122 26 -350 0
-183 5 -230 26 -230 11 0 14 -23 14 -105 0 -98 1 -105 20 -105 18 0 20 -7 20
-77 0 -91 7 -123 26 -123 10 0 14 -15 14 -54 0 -73 10 -116 26 -116 9 0 14
-12 14 -34 0 -53 11 -96 25 -96 16 0 25 -32 25 -87 0 -36 3 -43 20 -43 18 0
20 -7 20 -60 0 -53 2 -60 20 -60 17 0 20 -7 20 -45 0 -38 3 -45 20 -45 16 0
20 -7 20 -32 0 -47 10 -78 25 -78 7 0 16 -19 19 -45 5 -28 12 -45 21 -45 9 0
16 -17 21 -45 5 -35 10 -45 25 -45 15 0 19 -7 19 -40 0 -33 3 -40 20 -40 17 0
20 -7 20 -40 0 -33 3 -40 20 -40 15 0 20 -7 20 -25 0 -18 5 -25 20 -25 17 0
20 -7 20 -40 0 -33 3 -40 20 -40 17 0 20 -7 20 -40 0 -33 3 -40 20 -40 14 0
20 -7 20 -21 0 -12 8 -23 20 -26 14 -4 22 -17 26 -44 5 -29 11 -39 25 -39 12
0 19 -7 19 -20 0 -13 7 -20 20 -20 17 0 20 -7 20 -40 0 -33 3 -40 20 -40 14 0
20 -7 20 -21 0 -12 8 -23 20 -26 11 -3 20 -14 20 -24 0 -12 7 -19 19 -19 15 0
21 -10 26 -40 5 -30 11 -40 26 -40 12 0 19 -7 19 -20 0 -13 7 -20 20 -20 13 0
20 -7 20 -20 0 -13 7 -20 20 -20 15 0 20 -7 20 -25 0 -18 5 -25 20 -25 13 0
20 -7 20 -20 0 -13 7 -20 19 -20 15 0 21 -10 26 -40 5 -30 11 -40 26 -40 12 0
19 -7 19 -20 0 -13 7 -20 20 -20 13 0 20 -7 20 -20 0 -13 7 -20 20 -20 13 0
20 -7 20 -20 0 -13 7 -20 20 -20 13 0 20 -7 20 -20 0 -13 7 -20 20 -20 13 0
20 -7 20 -19 0 -13 8 -21 22 -23 15 -2 24 -11 26 -25 3 -19 10 -23 38 -23 27
0 34 -4 34 -20 0 -14 7 -20 21 -20 12 0 23 -8 26 -20 3 -11 14 -20 24 -20 13
0 19 -7 19 -21 0 -12 8 -23 19 -26 11 -3 21 -13 24 -24 3 -11 14 -19 26 -19
14 0 21 -6 21 -20 0 -16 7 -20 35 -20 28 0 35 -4 35 -20 0 -15 7 -20 25 -20
18 0 25 -5 25 -20 0 -13 7 -20 20 -20 13 0 20 -7 20 -19 0 -15 10 -21 40 -26
26 -4 40 -12 40 -22 0 -8 9 -17 20 -20 10 -3 22 -14 25 -24 5 -14 16 -19 40
-19 24 0 34 -5 38 -20 3 -12 14 -20 26 -20 14 0 21 -6 21 -20 0 -17 7 -20 40
-20 33 0 40 -3 40 -20 0 -15 7 -20 25 -20 18 0 25 -5 25 -20 0 -17 7 -20 40
-20 33 0 40 -3 40 -19 0 -15 10 -21 39 -26 27 -4 41 -13 44 -26 4 -14 14 -19
40 -19 26 0 36 -5 40 -20 4 -16 14 -20 46 -20 34 0 41 -3 41 -20 0 -17 7 -20
39 -20 30 0 40 -4 44 -20 4 -16 14 -20 46 -20 34 0 41 -3 41 -20 0 -16 7 -20
38 -20 50 0 82 -10 82 -25 0 -13 43 -25 90 -25 19 0 29 -6 33 -20 4 -17 14
-20 66 -20 54 0 61 -2 61 -20 0 -18 7 -20 59 -20 50 0 59 -3 64 -20 5 -18 14
-20 86 -20 74 0 81 -2 81 -20 0 -18 7 -20 54 -20 73 0 116 -10 116 -26 0 -11
18 -14 74 -14 90 0 136 -8 136 -25 0 -17 91 -25 286 -25 131 0 164 -3 164 -14
0 -17 180 -27 345 -19 87 5 115 9 115 19 0 11 30 14 149 14 180 0 271 8 271
25 0 14 74 25 178 25 65 0 72 2 72 20 0 18 7 20 81 20 72 0 81 2 86 20 5 17
14 20 62 20 70 0 101 8 101 26 0 11 16 14 65 14 58 0 65 2 65 20 0 18 7 20 60
20 53 0 60 2 60 20 0 16 9 20 59 26 46 5 60 11 64 25 4 15 14 19 45 19 31 0
41 4 45 20 4 16 14 20 46 20 34 0 41 3 41 20 0 17 7 20 40 20 33 0 40 3 40 20
0 16 7 20 38 20 50 0 82 10 82 25 0 7 17 15 39 19 27 4 40 12 44 26 3 12 14
20 26 20 12 0 21 6 21 14 0 9 15 17 39 21 27 4 41 13 44 26 4 14 14 19 41 19
29 0 36 4 36 20 0 15 7 20 25 20 18 0 25 5 25 20 0 17 7 20 40 20 33 0 40 3
40 19 0 15 10 21 40 26 25 4 40 12 40 21 0 8 11 19 25 24 14 5 25 16 25 25 0
8 9 15 20 15 13 0 20 7 20 20 0 17 7 20 40 20 33 0 40 3 40 20 0 13 7 20 20
20 13 0 20 7 20 20 0 14 7 20 21 20 12 0 23 8 26 19 3 12 17 21 38 25 21 4 35
14 38 26 3 12 14 20 26 20 14 0 21 6 21 20 0 13 7 20 20 20 13 0 20 7 20 20 0
13 7 20 20 20 13 0 20 7 20 20 0 14 7 20 21 20 12 0 23 8 26 19 3 11 13 21 24
24 10 3 19 12 19 21 0 9 8 16 20 16 13 0 20 7 20 19 0 10 9 21 20 24 12 3 20
14 20 26 0 14 6 21 20 21 13 0 20 7 20 20 0 13 7 20 20 20 13 0 20 7 20 20 0
14 7 20 21 20 12 0 23 8 26 19 3 11 13 21 24 24 10 3 19 12 19 20 0 9 9 19 20
22 11 3 20 15 20 26 0 12 7 19 20 19 13 0 20 7 20 20 0 13 7 20 20 20 17 0 20
7 20 40 0 33 3 40 20 40 13 0 20 7 20 20 0 13 7 20 20 20 14 0 20 7 20 21 0
12 8 23 19 26 11 3 21 13 24 24 3 10 12 19 20 19 10 0 18 14 22 40 5 30 11 40
26 40 12 0 19 7 19 20 0 13 7 20 20 20 17 0 20 7 20 40 0 33 3 40 20 40 14 0
20 7 20 24 0 15 7 26 19 29 13 3 22 17 26 41 4 20 13 36 20 36 8 0 16 17 20
40 5 30 11 40 26 40 14 0 19 7 19 25 0 15 6 25 15 25 10 0 17 14 21 40 5 30
11 40 25 40 15 0 19 8 19 40 0 33 3 40 20 40 17 0 20 7 20 41 0 32 4 42 19 46
13 3 21 17 25 44 4 24 12 39 21 39 9 0 16 16 21 45 3 26 12 45 19 45 15 0 25
31 25 83 0 30 4 37 20 37 18 0 20 7 20 60 0 53 2 60 20 60 16 0 20 7 20 38 0
52 10 82 26 82 10 0 14 13 14 46 0 37 4 47 20 51 16 4 20 14 20 47 0 64 11
116 25 116 15 0 25 45 25 111 0 35 4 49 14 49 18 0 26 44 26 141 0 61 3 79 14
79 21 0 26 33 26 188 0 114 3 142 14 142 7 0 16 14 20 31 3 17 6 204 6 415 0
377 0 384 -20 384 -19 0 -20 7 -20 165 0 158 -1 165 -20 165 -19 0 -20 7 -20
106 0 97 -2 106 -20 111 -15 4 -20 14 -20 43 0 78 -13 160 -25 160 -16 0 -25
32 -25 88 0 29 -4 42 -14 42 -16 0 -26 30 -26 83 0 30 -4 37 -20 37 -18 0 -20
7 -20 61 0 52 -3 62 -20 66 -16 4 -20 14 -20 44 0 32 -3 39 -20 39 -18 0 -20
7 -20 61 0 52 -3 62 -19 66 -13 3 -22 17 -26 44 -4 23 -12 39 -20 39 -9 0 -16
17 -21 45 -4 28 -11 45 -20 45 -8 0 -16 16 -20 40 -5 30 -11 40 -25 40 -15 0
-19 8 -19 40 0 33 -3 40 -20 40 -17 0 -20 7 -20 40 0 32 -4 40 -19 40 -14 0
-20 10 -25 40 -4 26 -11 40 -21 40 -9 0 -15 10 -15 25 0 18 -5 25 -19 25 -15
0 -21 10 -26 39 -4 27 -13 41 -26 44 -11 3 -19 14 -19 26 0 12 -6 21 -15 21
-10 0 -17 14 -21 40 -5 30 -11 40 -25 40 -12 0 -19 7 -19 20 0 13 -7 20 -19
20 -14 0 -20 10 -25 40 -4 26 -11 40 -21 40 -9 0 -15 9 -15 21 0 12 -8 23 -19
26 -11 3 -21 13 -24 24 -3 10 -12 19 -21 19 -11 0 -18 13 -22 40 -5 30 -11 40
-25 40 -12 0 -19 7 -19 20 0 13 -7 20 -20 20 -13 0 -20 7 -20 20 0 13 -7 20
-20 20 -14 0 -20 7 -20 21 0 12 -8 23 -20 26 -11 3 -20 12 -20 20 0 8 -9 17
-20 20 -11 3 -20 12 -20 20 0 8 -9 17 -20 20 -13 3 -22 17 -26 39 -4 24 -12
34 -25 34 -14 0 -19 7 -19 25 0 19 -5 25 -21 25 -12 0 -23 8 -26 19 -3 11 -13
21 -24 24 -10 3 -19 12 -19 21 0 9 -13 18 -35 22 -21 4 -35 12 -35 21 0 8 -9
17 -19 20 -11 3 -21 13 -24 24 -3 11 -14 19 -26 19 -14 0 -21 6 -21 20 0 13
-7 20 -20 20 -13 0 -20 7 -20 20 0 13 -7 20 -20 20 -13 0 -20 7 -20 20 0 14
-7 20 -21 20 -12 0 -23 8 -26 20 -3 12 -17 22 -38 26 -21 4 -35 13 -38 25 -3
11 -14 19 -26 19 -14 0 -21 6 -21 20 0 13 -7 20 -20 20 -13 0 -20 7 -20 19 0
14 -10 20 -40 25 -26 4 -40 11 -40 21 0 8 -9 15 -20 15 -11 0 -20 7 -20 15 0
9 -11 20 -24 24 -13 5 -26 16 -29 25 -3 8 -22 18 -41 22 -26 4 -36 11 -36 25
0 15 -7 19 -40 19 -33 0 -40 3 -40 20 0 15 -7 20 -25 20 -18 0 -25 5 -25 20 0
17 -7 20 -40 20 -32 0 -40 4 -40 19 0 14 -10 20 -40 25 -25 4 -40 12 -40 20 0
9 -15 17 -39 21 -27 4 -41 13 -44 26 -4 15 -14 19 -46 19 -34 0 -41 3 -41 20
0 17 -7 20 -40 20 -33 0 -40 3 -40 20 0 17 -7 20 -45 20 -38 0 -45 3 -45 20 0
18 -7 20 -60 20 -52 0 -60 2 -60 19 0 15 -10 20 -45 25 -27 5 -45 12 -45 20 0
14 -42 26 -91 26 -18 0 -29 5 -29 14 0 14 -41 26 -90 26 -19 0 -29 6 -33 20
-5 18 -14 20 -86 20 -74 0 -81 2 -81 20 0 18 -7 20 -85 20 -78 0 -85 2 -85 20
0 19 -7 20 -101 20 -90 0 -101 2 -106 19 -4 17 -20 19 -169 26 -120 5 -164 10
-164 20 0 20 -374 30 -702 18z m1992 -1347 c0 -10 29 -15 123 -20 141 -9 167
-13 167 -31 0 -7 18 -15 40 -19 26 -4 40 -12 40 -21 0 -8 11 -17 24 -21 13 -3
26 -14 29 -25 3 -10 12 -19 21 -19 9 0 16 -8 16 -20 0 -13 7 -20 20 -20 17 0
20 -7 20 -40 0 -32 4 -40 19 -40 26 0 31 -35 31 -205 0 -167 -5 -201 -31 -208
-15 -4 -19 -14 -19 -46 0 -34 -3 -41 -20 -41 -13 0 -20 -7 -20 -20 0 -13 -7
-20 -20 -20 -13 0 -20 -7 -20 -20 0 -15 -9 -21 -40 -26 -30 -5 -40 -11 -40
-25 0 -16 -8 -19 -41 -19 -32 0 -42 -4 -46 -20 -4 -16 -14 -20 -52 -20 -122 0
-241 -13 -241 -27 0 -9 -14 -13 -45 -13 -33 0 -45 4 -45 15 0 13 -143 15
-1225 15 -1082 0 -1225 -2 -1225 -15 0 -11 -11 -15 -40 -15 -29 0 -40 4 -40
15 0 12 -14 15 -65 15 -51 0 -65 -3 -65 -15 0 -8 -7 -15 -15 -15 -13 0 -15
-88 -15 -730 l0 -730 1344 0 c1335 0 1344 0 1349 -20 5 -18 14 -20 86 -20 74
0 81 -2 81 -20 0 -14 7 -20 23 -20 38 0 67 -12 67 -26 0 -8 9 -14 20 -14 12 0
20 -7 20 -16 0 -9 9 -18 20 -21 13 -3 20 -14 20 -29 0 -17 6 -24 20 -24 14 0
20 -7 20 -21 0 -12 8 -23 19 -26 23 -6 31 -41 31 -134 0 -55 3 -69 15 -69 8 0
15 -9 15 -20 0 -11 -7 -20 -15 -20 -12 0 -15 -14 -15 -69 0 -93 -8 -128 -31
-134 -11 -3 -19 -14 -19 -25 0 -11 -9 -22 -20 -25 -12 -3 -20 -14 -20 -26 0
-12 -6 -21 -14 -21 -7 0 -16 -9 -19 -20 -3 -12 -14 -20 -26 -20 -14 0 -21 -6
-21 -20 0 -15 -7 -20 -25 -20 -15 0 -25 -6 -25 -14 0 -18 -31 -26 -102 -26
-44 0 -59 -4 -67 -17 -9 -17 -86 -18 -1370 -21 l-1361 -2 0 -855 0 -855 1350
0 c1193 0 1350 -2 1350 -15 0 -11 11 -15 40 -15 29 0 40 4 40 15 0 11 12 15
45 15 31 0 45 -4 45 -14 0 -15 87 -26 211 -26 68 0 77 -2 82 -20 4 -15 14 -20
39 -20 50 0 76 -10 81 -31 3 -10 12 -19 20 -19 8 0 17 -9 20 -20 3 -11 12 -20
20 -20 8 0 17 -9 20 -20 3 -11 12 -20 21 -20 11 0 18 -13 22 -40 5 -30 11 -40
25 -40 16 0 19 -8 19 -59 0 -50 3 -59 20 -64 18 -5 20 -14 20 -107 0 -93 -2
-102 -20 -107 -17 -5 -20 -14 -20 -64 0 -52 -2 -59 -20 -59 -15 0 -20 -7 -20
-25 0 -18 -5 -25 -19 -25 -14 0 -21 -10 -25 -35 -4 -22 -13 -35 -22 -35 -9 0
-18 -9 -21 -20 -4 -14 -17 -22 -44 -26 -29 -5 -39 -11 -39 -25 0 -14 -7 -19
-29 -19 -49 0 -91 -12 -91 -26 0 -12 -300 -14 -1939 -14 -1930 0 -1939 0
-1944 20 -4 17 -14 20 -66 20 -54 0 -61 2 -61 20 0 17 -7 20 -40 20 -33 0 -40
3 -40 20 0 14 -7 20 -21 20 -12 0 -23 8 -26 20 -3 11 -12 20 -20 20 -8 0 -17
9 -20 19 -3 11 -13 21 -24 24 -11 3 -19 14 -19 26 0 12 -6 21 -15 21 -9 0 -17
14 -21 39 -4 27 -12 41 -25 44 -15 4 -19 14 -19 50 0 55 -8 77 -26 77 -12 0
-14 385 -14 2605 0 2598 0 2605 20 2605 17 0 20 7 20 45 0 38 3 45 20 45 16 0
20 7 20 35 0 24 6 37 20 45 10 6 22 26 26 45 4 21 12 35 21 35 8 0 17 9 20 20
3 12 17 22 38 26 21 4 35 13 38 25 3 11 14 19 25 19 11 0 22 9 25 20 4 17 14
20 60 20 46 0 55 3 60 20 4 17 14 20 54 20 124 0 243 13 243 27 0 11 274 13
1665 13 1404 0 1665 -2 1665 -14z"/>
<path d="M13530 13756 c0 -17 -90 -26 -257 -26 -98 0 -123 -3 -123 -14 0 -18
-45 -26 -156 -26 -87 0 -94 -1 -94 -20 0 -18 -7 -20 -77 -20 -91 0 -123 -7
-123 -26 0 -9 -12 -14 -34 -14 -54 0 -96 -11 -96 -26 0 -9 -11 -14 -29 -14
-48 0 -91 -12 -91 -25 0 -14 -43 -25 -96 -25 -27 0 -34 -4 -34 -20 0 -17 -7
-20 -45 -20 -38 0 -45 -3 -45 -20 0 -18 -7 -20 -60 -20 -53 0 -60 -2 -60 -20
0 -17 -7 -20 -40 -20 -33 0 -40 -3 -40 -20 0 -17 -7 -20 -41 -20 -32 0 -42 -4
-46 -19 -3 -13 -17 -22 -44 -26 -22 -4 -39 -12 -39 -20 0 -8 -17 -16 -39 -20
-27 -4 -41 -13 -44 -26 -4 -15 -14 -19 -46 -19 -34 0 -41 -3 -41 -20 0 -17 -7
-20 -40 -20 -32 0 -40 -4 -40 -19 0 -14 -10 -20 -40 -25 -26 -4 -40 -11 -40
-21 0 -8 -9 -15 -20 -15 -13 0 -20 -7 -20 -19 0 -15 -10 -21 -39 -26 -27 -4
-41 -13 -44 -26 -3 -11 -14 -19 -26 -19 -14 0 -21 -6 -21 -20 0 -17 -7 -20
-40 -20 -33 0 -40 -3 -40 -20 0 -13 -7 -20 -20 -20 -13 0 -20 -7 -20 -20 0
-15 -7 -20 -25 -20 -18 0 -25 -5 -25 -19 0 -15 -10 -21 -40 -26 -30 -5 -40
-11 -40 -26 0 -12 -7 -19 -20 -19 -13 0 -20 -7 -20 -20 0 -13 -7 -20 -20 -20
-13 0 -20 -7 -20 -20 0 -15 -7 -20 -25 -20 -18 0 -25 -5 -25 -20 0 -13 -7 -20
-20 -20 -13 0 -20 -7 -20 -20 0 -17 -7 -20 -40 -20 -36 0 -40 -2 -40 -25 0
-18 -5 -25 -20 -25 -13 0 -20 -7 -20 -20 0 -13 -7 -20 -20 -20 -13 0 -20 -7
-20 -20 0 -13 -7 -20 -20 -20 -13 0 -20 -7 -20 -20 0 -13 -7 -20 -20 -20 -13
0 -20 -7 -20 -20 0 -15 -7 -20 -25 -20 -18 0 -25 -5 -25 -20 0 -13 -7 -20 -20
-20 -15 0 -20 -7 -20 -25 0 -18 -5 -25 -19 -25 -13 0 -21 -10 -25 -34 -4 -22
-13 -36 -26 -39 -12 -3 -20 -14 -20 -26 0 -14 -6 -21 -20 -21 -13 0 -20 -7
-20 -20 0 -13 -7 -20 -20 -20 -13 0 -20 -7 -20 -20 0 -13 -7 -20 -20 -20 -15
0 -20 -7 -20 -25 0 -18 -5 -25 -20 -25 -16 0 -20 -7 -20 -35 0 -28 -4 -35 -20
-35 -15 0 -20 -7 -20 -25 0 -18 -5 -25 -20 -25 -13 0 -20 -7 -20 -20 0 -13 -7
-20 -19 -20 -15 0 -21 -10 -26 -39 -4 -27 -13 -41 -26 -44 -11 -3 -19 -14 -19
-26 0 -14 -6 -21 -20 -21 -17 0 -20 -7 -20 -40 0 -33 -3 -40 -20 -40 -13 0
-20 -7 -20 -20 0 -13 -7 -20 -20 -20 -17 0 -20 -7 -20 -40 0 -32 -4 -40 -19
-40 -14 0 -20 -10 -25 -40 -4 -26 -11 -40 -21 -40 -9 0 -15 -10 -15 -25 0 -18
-5 -25 -19 -25 -15 0 -21 -10 -26 -39 -4 -27 -13 -41 -26 -44 -15 -4 -19 -14
-19 -46 0 -34 -3 -41 -20 -41 -15 0 -20 -7 -20 -29 0 -48 -12 -91 -25 -91 -7
0 -15 -18 -19 -40 -4 -26 -11 -40 -21 -40 -11 0 -15 -11 -15 -41 0 -32 -4 -42
-20 -46 -16 -4 -20 -14 -20 -44 0 -31 -4 -39 -19 -39 -19 0 -31 -39 -31 -102
0 -17 -5 -28 -14 -28 -17 0 -26 -31 -26 -87 0 -36 -3 -43 -20 -43 -18 0 -20
-7 -20 -80 0 -73 -2 -80 -20 -80 -18 0 -20 -7 -20 -57 0 -72 -8 -103 -26 -103
-11 0 -14 -19 -14 -85 0 -78 -2 -85 -20 -85 -18 0 -20 -7 -20 -84 0 -120 -10
-206 -25 -206 -22 0 -25 -66 -25 -525 0 -466 4 -555 25 -555 13 0 25 -92 25
-197 0 -47 4 -63 14 -63 18 0 26 -44 26 -136 0 -56 3 -74 14 -74 18 0 26 -31
26 -102 0 -51 2 -58 20 -58 18 0 20 -7 20 -65 0 -58 2 -65 20 -65 18 0 20 -7
20 -61 0 -52 3 -62 20 -66 17 -5 20 -14 20 -60 0 -45 3 -56 19 -60 19 -5 31
-40 31 -94 0 -22 5 -29 20 -29 17 0 20 -7 20 -45 0 -38 3 -45 20 -45 17 0 20
-7 20 -40 0 -33 3 -40 20 -40 17 0 20 -7 20 -45 0 -38 3 -45 20 -45 17 0 20
-7 20 -40 0 -33 3 -40 20 -40 17 0 20 -7 20 -40 0 -33 3 -40 19 -40 15 0 21
-10 26 -39 4 -27 13 -41 26 -44 14 -4 19 -14 19 -40 0 -26 5 -36 20 -40 12 -3
20 -14 20 -26 0 -14 6 -21 20 -21 17 0 20 -7 20 -40 0 -32 4 -40 19 -40 14 0
20 -10 25 -40 4 -25 12 -40 20 -40 8 0 16 -10 18 -22 2 -15 11 -24 26 -26 18
-3 22 -10 22 -43 0 -32 3 -39 20 -39 13 0 20 -7 20 -20 0 -13 7 -20 20 -20 13
0 20 -7 20 -20 0 -13 7 -20 20 -20 15 0 20 -7 20 -25 0 -18 5 -25 20 -25 17 0
20 -7 20 -40 0 -36 3 -40 25 -40 18 0 25 -5 25 -20 0 -13 7 -20 20 -20 13 0
20 -7 20 -20 0 -13 7 -20 20 -20 15 0 20 -7 20 -25 0 -18 5 -25 20 -25 13 0
20 -7 20 -20 0 -13 7 -20 20 -20 13 0 20 -7 20 -20 0 -13 7 -20 20 -20 13 0
20 -7 20 -20 0 -13 7 -20 20 -20 14 0 20 -7 20 -21 0 -12 8 -23 20 -26 11 -3
20 -12 20 -20 0 -8 9 -17 19 -20 11 -3 21 -13 24 -24 3 -11 14 -19 26 -19 14
0 21 -6 21 -20 0 -13 7 -20 20 -20 13 0 20 -7 20 -20 0 -13 7 -20 20 -20 13 0
20 -7 20 -20 0 -13 7 -20 20 -20 13 0 20 -7 20 -20 0 -15 7 -20 25 -20 18 0
25 -5 25 -20 0 -13 7 -20 20 -20 13 0 20 -7 20 -20 0 -13 7 -20 20 -20 13 0
20 -7 20 -19 0 -15 10 -21 40 -26 30 -5 40 -11 40 -26 0 -12 7 -19 20 -19 13
0 20 -7 20 -19 0 -14 10 -20 40 -25 26 -4 40 -11 40 -21 0 -9 10 -15 25 -15
18 0 25 -5 25 -20 0 -13 7 -20 20 -20 13 0 20 -7 20 -19 0 -15 10 -21 39 -26
27 -4 41 -13 44 -26 3 -11 14 -19 26 -19 14 0 21 -6 21 -20 0 -17 7 -20 40
-20 33 0 40 -3 40 -20 0 -17 7 -20 40 -20 33 0 40 -3 40 -20 0 -15 7 -20 25
-20 18 0 25 -5 25 -20 0 -16 7 -20 36 -20 27 0 37 -5 41 -20 4 -16 14 -20 43
-20 32 0 39 -4 42 -22 2 -19 10 -24 46 -26 34 -3 42 -7 42 -23 0 -17 7 -19 60
-19 53 0 60 -2 60 -20 0 -17 7 -20 40 -20 33 0 40 -3 40 -20 0 -16 7 -20 38
-20 51 0 82 -10 82 -25 0 -7 19 -16 45 -19 27 -5 45 -12 45 -20 0 -15 43 -26
96 -26 27 0 34 -4 34 -20 0 -18 7 -20 80 -20 73 0 80 -2 80 -20 0 -18 7 -20
80 -20 73 0 80 -2 80 -20 0 -18 7 -20 63 -20 76 0 107 -8 107 -26 0 -11 22
-14 106 -14 97 0 106 -2 111 -20 5 -18 14 -20 117 -20 231 0 426 -12 426 -27
0 -10 23 -13 100 -13 77 0 100 3 100 13 0 15 195 27 426 27 103 0 112 2 117
20 5 18 14 20 106 20 79 0 101 3 101 14 0 16 43 26 116 26 47 0 54 2 54 20 0
18 7 20 85 20 78 0 85 2 85 20 0 18 7 20 58 20 75 0 99 8 105 32 5 16 11 19
32 14 43 -11 95 3 95 25 0 15 7 19 39 19 30 0 40 4 44 20 4 17 14 20 60 20 46
0 55 3 60 20 4 16 14 20 46 20 34 0 41 3 41 20 0 17 7 20 40 20 33 0 40 3 40
20 0 17 7 20 45 20 38 0 45 3 45 19 0 15 10 21 40 26 23 4 40 12 40 20 0 8 17
16 40 20 24 4 40 12 40 20 0 9 17 16 45 21 35 5 45 10 45 25 0 15 7 19 40 19
33 0 40 3 40 20 0 13 7 20 20 20 13 0 20 7 20 20 0 17 7 20 40 20 33 0 40 3
40 20 0 14 7 20 21 20 12 0 23 8 26 19 3 13 17 22 44 26 29 5 39 11 39 26 0
12 7 19 20 19 13 0 20 7 20 20 0 15 7 20 25 20 18 0 25 5 25 20 0 17 7 20 40
20 33 0 40 3 40 20 0 13 7 20 20 20 13 0 20 7 20 20 0 13 7 20 20 20 13 0 20
7 20 20 0 14 7 20 21 20 12 0 23 8 26 20 3 13 17 22 39 26 24 4 34 12 34 25 0
14 7 19 25 19 18 0 25 5 25 20 0 13 7 20 20 20 13 0 20 7 20 20 0 13 7 20 20
20 15 0 20 7 20 25 0 18 5 25 20 25 12 0 20 7 20 16 0 9 9 18 20 21 11 3 20
12 20 20 0 8 9 17 19 20 11 3 21 13 24 24 3 11 14 19 26 19 14 0 21 6 21 20 0
13 7 20 20 20 13 0 20 7 20 20 0 13 7 20 20 20 15 0 20 7 20 25 0 18 5 25 20
25 13 0 20 7 20 20 0 13 7 20 19 20 15 0 21 10 26 40 5 30 11 40 26 40 12 0
19 7 19 20 0 13 7 20 20 20 13 0 20 7 20 19 0 10 9 21 20 24 12 3 20 14 20 26
0 14 6 21 20 21 17 0 20 7 20 40 0 33 3 40 20 40 13 0 20 7 20 20 0 13 7 20
20 20 14 0 20 7 20 21 0 12 8 23 19 26 13 3 22 17 26 44 4 22 12 39 20 39 7 0
15 9 18 20 3 11 12 20 21 20 11 0 18 13 22 40 5 30 11 40 25 40 15 0 19 8 19
40 0 32 4 40 19 40 14 0 20 10 25 40 4 24 12 40 20 40 9 0 16 17 20 45 5 31
12 45 23 45 8 0 17 9 20 20 3 11 11 20 19 20 8 0 15 18 20 45 5 35 10 45 25
45 15 0 19 7 19 40 0 33 3 40 20 40 18 0 20 7 20 60 0 53 2 60 20 60 17 0 20
7 20 45 0 38 3 45 20 45 15 0 20 7 20 29 0 49 12 91 26 91 10 0 14 13 14 41 0
32 4 42 19 46 21 5 31 41 31 114 0 42 3 49 20 49 18 0 20 7 20 85 0 78 2 85
20 85 18 0 20 7 20 81 0 72 2 81 20 86 18 5 20 14 20 73 0 86 9 130 26 130 11
0 14 24 14 114 0 130 7 176 26 176 12 0 14 73 14 440 0 367 -2 440 -14 440
-19 0 -26 46 -26 175 0 104 -1 113 -20 118 -18 5 -20 14 -20 91 0 67 -3 86
-14 86 -19 0 -26 32 -26 123 0 70 -2 77 -20 77 -18 0 -20 7 -20 65 0 58 -2 65
-20 65 -17 0 -20 7 -20 49 0 66 -10 111 -25 111 -13 0 -25 43 -25 90 0 19 -6
29 -20 33 -16 4 -20 14 -20 46 0 34 -3 41 -20 41 -17 0 -20 7 -20 45 0 32 -4
45 -14 45 -16 0 -26 30 -26 83 0 30 -4 37 -20 37 -17 0 -20 7 -20 40 0 33 -3
40 -20 40 -17 0 -20 7 -20 41 0 33 -4 42 -20 46 -14 4 -22 17 -26 44 -5 29
-11 39 -25 39 -15 0 -19 8 -19 40 0 33 -3 40 -20 40 -15 0 -20 7 -20 25 0 15
-6 25 -15 25 -10 0 -17 14 -21 40 -5 30 -11 40 -25 40 -15 0 -19 8 -19 40 0
33 -3 40 -19 40 -15 0 -21 10 -26 40 -4 26 -12 40 -22 40 -8 0 -17 9 -20 19
-3 11 -13 21 -24 24 -11 3 -19 14 -19 26 0 14 -6 21 -20 21 -17 0 -20 7 -20
40 0 33 -3 40 -20 40 -13 0 -20 7 -20 20 0 13 -7 20 -20 20 -15 0 -20 7 -20
25 0 18 -5 25 -19 25 -13 0 -21 10 -25 34 -4 22 -13 36 -26 39 -12 3 -20 14
-20 26 0 14 -6 21 -20 21 -13 0 -20 7 -20 20 0 13 -7 20 -20 20 -13 0 -20 7
-20 20 0 13 -7 20 -20 20 -15 0 -20 7 -20 25 0 18 -5 25 -20 25 -13 0 -20 7
-20 20 0 13 -7 20 -20 20 -13 0 -20 7 -20 20 0 13 -7 20 -20 20 -13 0 -20 7
-20 20 0 13 -7 20 -20 20 -14 0 -20 7 -20 21 0 12 -8 23 -19 26 -11 3 -21 13
-24 24 -3 11 -14 19 -26 19 -14 0 -21 6 -21 20 0 13 -7 20 -20 20 -13 0 -20 7
-20 20 0 13 -7 20 -20 20 -13 0 -20 7 -20 20 0 13 -7 20 -20 20 -13 0 -20 7
-20 20 0 15 -7 20 -25 20 -18 0 -25 5 -25 20 0 13 -7 20 -20 20 -13 0 -20 7
-20 20 0 13 -7 20 -20 20 -13 0 -20 7 -20 19 0 15 -10 21 -39 26 -27 4 -41 13
-44 26 -3 11 -14 19 -26 19 -14 0 -21 6 -21 20 0 13 -7 20 -20 20 -13 0 -20 7
-20 20 0 16 -7 20 -36 20 -27 0 -37 5 -41 20 -3 11 -14 20 -24 20 -12 0 -19 7
-19 19 0 14 -10 20 -40 25 -26 4 -40 11 -40 21 0 9 -9 15 -21 15 -12 0 -23 8
-26 19 -3 13 -17 22 -44 26 -29 5 -39 11 -39 26 0 16 -7 19 -40 19 -33 0 -40
3 -40 20 0 15 -7 20 -25 20 -18 0 -25 5 -25 20 0 17 -7 20 -40 20 -33 0 -40 3
-40 20 0 17 -7 20 -40 20 -33 0 -40 3 -40 19 0 16 -9 21 -45 27 -28 4 -45 11
-45 20 0 8 -16 16 -40 20 -30 5 -40 11 -40 25 0 15 -8 19 -40 19 -33 0 -40 3
-40 20 0 18 -7 20 -65 20 -58 0 -65 2 -65 20 0 15 -7 20 -29 20 -49 0 -91 12
-91 26 0 9 -11 14 -29 14 -54 0 -89 12 -94 31 -4 16 -15 19 -66 19 -45 0 -61
4 -61 14 0 15 -42 26 -96 26 -27 0 -34 4 -34 20 0 18 -7 20 -85 20 -78 0 -85
2 -85 20 0 19 -7 20 -120 20 -113 0 -120 1 -120 20 0 19 -7 20 -129 20 -168 0
-251 9 -251 26 0 12 -56 14 -310 14 -254 0 -310 -2 -310 -14z m733 -1233 c85
-5 97 -8 97 -25 0 -17 11 -18 145 -18 138 0 145 -1 145 -20 0 -18 7 -20 85
-20 78 0 85 -2 85 -20 0 -18 7 -20 65 -20 58 0 65 -2 65 -20 0 -15 7 -20 29
-20 49 0 91 -12 91 -26 0 -10 13 -14 40 -14 33 0 40 -3 40 -20 0 -17 7 -20 41
-20 33 0 42 -4 46 -20 4 -14 17 -22 44 -26 29 -5 39 -11 39 -25 0 -16 8 -19
45 -19 38 0 45 -3 45 -20 0 -17 7 -20 40 -20 33 0 40 -3 40 -20 0 -16 7 -20
36 -20 27 0 37 -5 41 -20 3 -11 14 -20 24 -20 12 0 19 -7 19 -19 0 -15 10 -21
39 -26 27 -4 41 -13 44 -26 3 -11 14 -19 26 -19 14 0 21 -6 21 -20 0 -13 7
-20 20 -20 13 0 20 -7 20 -20 0 -13 7 -20 20 -20 13 0 20 -7 20 -20 0 -13 7
-20 20 -20 13 0 20 -7 20 -20 0 -13 7 -20 20 -20 13 0 20 -7 20 -19 0 -13 8
-21 23 -23 14 -2 23 -11 25 -25 2 -15 10 -23 23 -23 12 0 19 -7 19 -20 0 -13
7 -20 20 -20 13 0 20 -7 20 -20 0 -13 7 -20 20 -20 15 0 20 -7 20 -25 0 -18 5
-25 20 -25 17 0 20 -7 20 -40 0 -33 3 -40 20 -40 13 0 20 -7 20 -20 0 -13 7
-20 19 -20 15 0 21 -10 26 -40 4 -24 12 -40 20 -40 9 0 16 -17 21 -45 5 -35
10 -45 25 -45 17 0 19 -8 19 -60 0 -53 2 -60 20 -60 18 0 20 -7 20 -85 0 -78
2 -85 20 -85 19 0 20 -7 20 -100 0 -93 -1 -100 -20 -100 -18 0 -20 -7 -20 -65
0 -58 -2 -65 -20 -65 -17 0 -20 -7 -20 -40 0 -33 -3 -40 -20 -40 -14 0 -20 -7
-20 -21 0 -12 -8 -23 -19 -26 -11 -3 -21 -13 -24 -24 -3 -11 -14 -19 -26 -19
-14 0 -21 -6 -21 -20 0 -13 -7 -20 -20 -20 -13 0 -20 -7 -20 -19 0 -14 -10
-20 -40 -25 -25 -4 -40 -12 -40 -20 0 -9 -16 -17 -40 -21 -22 -4 -40 -12 -40
-20 0 -18 -56 -25 -196 -25 -137 0 -184 7 -184 26 0 8 -18 15 -45 20 -35 5
-45 10 -45 25 0 15 -7 19 -40 19 -33 0 -40 3 -40 20 0 13 -7 20 -20 20 -13 0
-20 7 -20 20 0 13 -7 20 -20 20 -13 0 -20 7 -20 20 0 13 -7 20 -19 20 -15 0
-21 10 -26 39 -4 27 -13 41 -26 44 -11 3 -19 14 -19 26 0 14 -6 21 -20 21 -17
0 -20 7 -20 40 0 33 -3 40 -20 40 -13 0 -20 7 -20 20 0 13 -7 20 -20 20 -15 0
-20 7 -20 25 0 18 -5 25 -20 25 -17 0 -20 7 -20 40 0 33 -3 40 -20 40 -13 0
-20 7 -20 20 0 13 -7 20 -20 20 -14 0 -20 7 -20 21 0 12 -8 23 -20 26 -13 3
-22 17 -26 39 -4 24 -12 34 -25 34 -12 0 -19 7 -19 20 0 13 -7 20 -20 20 -15
0 -20 7 -20 25 0 18 -5 25 -20 25 -13 0 -20 7 -20 20 0 15 -7 20 -25 20 -18 0
-25 5 -25 20 0 13 -7 20 -20 20 -13 0 -20 7 -20 20 0 16 -7 20 -36 20 -27 0
-37 5 -41 19 -3 13 -17 22 -44 26 -29 5 -39 11 -39 26 0 16 -7 19 -40 19 -33
0 -40 3 -40 20 0 17 -7 20 -45 20 -38 0 -45 3 -45 20 0 18 -7 20 -65 20 -58 0
-65 2 -65 20 0 19 -7 20 -100 20 -93 0 -100 1 -100 20 0 20 -7 20 -275 20
-227 0 -275 -2 -275 -14 0 -20 -32 -26 -142 -26 -91 0 -98 -1 -98 -20 0 -18
-7 -20 -65 -20 -58 0 -65 -2 -65 -20 0 -18 -7 -20 -60 -20 -53 0 -60 -2 -60
-19 0 -16 -8 -20 -42 -23 -36 -2 -44 -7 -46 -25 -3 -19 -10 -23 -43 -23 -32 0
-39 -3 -39 -20 0 -13 -7 -20 -20 -20 -13 0 -20 -7 -20 -20 0 -17 -7 -20 -40
-20 -33 0 -40 -3 -40 -20 0 -15 -7 -20 -25 -20 -18 0 -25 -5 -25 -20 0 -13 -7
-20 -20 -20 -13 0 -20 -7 -20 -19 0 -15 -10 -21 -40 -26 -30 -5 -40 -11 -40
-26 0 -12 -7 -19 -19 -19 -14 0 -21 -10 -25 -35 -4 -22 -13 -35 -22 -35 -9 0
-18 -9 -21 -19 -3 -11 -13 -21 -24 -24 -11 -3 -19 -14 -19 -26 0 -14 -6 -21
-20 -21 -13 0 -20 -7 -20 -20 0 -13 -7 -20 -20 -20 -17 0 -20 -7 -20 -40 0
-33 -3 -40 -20 -40 -15 0 -20 -7 -20 -25 0 -18 -5 -25 -20 -25 -17 0 -20 -7
-20 -40 0 -33 -3 -40 -19 -40 -15 0 -21 -10 -26 -39 -4 -27 -13 -41 -26 -44
-15 -4 -19 -14 -19 -46 0 -34 -3 -41 -20 -41 -18 0 -20 -7 -20 -60 0 -53 -2
-60 -20 -60 -16 0 -20 -7 -20 -37 0 -53 -10 -83 -26 -83 -11 0 -14 -16 -14
-65 0 -58 -2 -65 -20 -65 -19 0 -20 -7 -20 -105 0 -96 -2 -105 -19 -105 -18 0
-19 -14 -26 -270 -6 -219 -10 -270 -21 -270 -8 0 -14 -9 -14 -20 0 -11 7 -20
15 -20 12 0 15 -16 15 -87 0 -221 13 -463 25 -463 17 0 25 -48 25 -156 0 -87
1 -94 20 -94 18 0 20 -7 20 -59 0 -50 3 -59 20 -64 17 -4 20 -14 20 -66 0 -54
2 -61 20 -61 15 0 20 -7 20 -29 0 -48 12 -91 25 -91 7 0 15 -17 19 -39 4 -27
12 -40 26 -44 16 -4 20 -13 20 -46 0 -34 3 -41 20 -41 17 0 20 -7 20 -40 0
-33 3 -40 20 -40 15 0 20 -7 20 -25 0 -18 5 -25 20 -25 13 0 20 -7 20 -20 0
-13 7 -20 20 -20 17 0 20 -7 20 -40 0 -34 3 -40 21 -40 12 0 23 -8 26 -19 3
-11 13 -21 24 -24 10 -3 19 -12 19 -20 0 -8 9 -17 20 -20 12 -3 20 -14 20 -26
0 -14 6 -21 20 -21 13 0 20 -7 20 -20 0 -13 7 -20 20 -20 13 0 20 -7 20 -20 0
-13 7 -20 20 -20 13 0 20 -7 20 -20 0 -14 7 -20 21 -20 12 0 23 -8 26 -20 4
-15 14 -20 40 -20 26 0 36 -5 40 -19 3 -13 17 -22 44 -26 29 -5 39 -11 39 -26
0 -12 7 -19 20 -19 11 0 20 -6 20 -14 0 -14 42 -26 91 -26 22 0 29 -5 29 -20
0 -17 7 -20 45 -20 38 0 45 -3 45 -20 0 -18 7 -20 60 -20 53 0 60 -2 60 -20 0
-18 7 -20 85 -20 78 0 85 -2 85 -20 0 -20 7 -20 440 -20 367 0 440 2 440 14 0
18 45 26 156 26 87 0 94 1 94 20 0 18 7 20 80 20 73 0 80 2 80 20 0 17 7 20
45 20 38 0 45 3 45 20 0 15 7 20 29 20 48 0 91 12 91 25 0 7 19 16 45 19 27 5
45 12 45 20 0 14 42 26 91 26 22 0 29 5 29 20 0 17 7 20 40 20 33 0 40 3 40
20 0 17 7 20 45 20 38 0 45 3 45 20 0 17 7 20 40 20 l40 0 0 500 0 500 -500 0
c-493 0 -500 0 -500 20 0 19 -7 20 -145 20 -138 0 -145 1 -145 20 0 18 -7 20
-61 20 -52 0 -62 3 -66 19 -3 13 -17 22 -44 26 -29 5 -39 11 -39 26 0 12 -7
19 -20 19 -13 0 -20 7 -20 20 0 13 -7 20 -19 20 -16 0 -21 9 -27 45 -3 26 -12
45 -19 45 -22 0 -33 186 -19 307 5 39 11 53 25 56 11 3 19 14 19 26 0 12 6 21
14 21 9 0 17 15 21 40 5 30 11 40 26 40 12 0 19 7 19 20 0 14 7 20 21 20 12 0
23 8 26 20 4 14 17 22 44 26 29 5 39 11 39 25 0 16 8 19 60 19 53 0 60 2 60
20 0 20 7 20 960 20 953 0 960 0 960 -20 0 -18 7 -20 80 -20 73 0 80 -2 80
-20 0 -17 7 -20 40 -20 33 0 40 -3 40 -20 0 -15 7 -20 25 -20 18 0 25 -5 25
-20 0 -13 7 -20 20 -20 15 0 20 -7 20 -25 0 -18 5 -25 20 -25 13 0 20 -7 20
-20 0 -13 7 -20 19 -20 15 0 21 -10 26 -40 4 -24 12 -40 20 -40 9 0 16 -17 21
-45 3 -26 12 -45 19 -45 7 0 15 -14 19 -31 3 -17 6 -420 6 -895 0 -857 0 -864
-20 -864 -16 0 -20 -7 -20 -34 0 -53 -11 -96 -25 -96 -8 0 -16 -18 -20 -40 -5
-30 -11 -40 -26 -40 -12 0 -19 -7 -19 -20 0 -13 -7 -20 -20 -20 -13 0 -20 -7
-20 -20 0 -13 -7 -20 -20 -20 -15 0 -20 -7 -20 -25 0 -18 -5 -25 -20 -25 -13
0 -20 -7 -20 -20 0 -13 -7 -20 -19 -20 -10 0 -21 -9 -24 -20 -3 -12 -14 -20
-26 -20 -14 0 -21 -6 -21 -20 0 -17 -7 -20 -40 -20 -33 0 -40 -3 -40 -20 0
-17 -7 -20 -40 -20 -33 0 -40 -3 -40 -20 0 -14 -7 -20 -21 -20 -12 0 -23 -8
-26 -20 -4 -15 -14 -20 -40 -20 -26 0 -36 -5 -40 -19 -3 -13 -17 -22 -44 -26
-23 -4 -39 -12 -39 -20 0 -9 -17 -16 -45 -21 -26 -3 -45 -12 -45 -19 0 -15
-31 -25 -82 -25 -31 0 -38 -4 -38 -20 0 -17 -7 -20 -40 -20 -33 0 -40 -3 -40
-20 0 -17 -7 -20 -41 -20 -32 0 -42 -4 -46 -20 -4 -14 -14 -20 -33 -20 -56 0
-90 -12 -90 -31 0 -16 -8 -19 -45 -19 -32 0 -45 -4 -45 -14 0 -18 -31 -26
-102 -26 -51 0 -58 -2 -58 -20 0 -18 -7 -20 -65 -20 -58 0 -65 -2 -65 -20 0
-18 -7 -20 -81 -20 -72 0 -81 -2 -86 -20 -5 -17 -14 -20 -63 -20 -95 0 -180
-12 -180 -25 0 -12 -122 -25 -242 -25 -42 0 -58 -4 -58 -14 0 -20 -89 -26
-419 -26 -314 0 -371 4 -371 26 0 11 -17 14 -67 14 -137 0 -263 12 -263 26 0
8 -27 14 -85 19 -58 5 -85 11 -85 20 0 15 -45 25 -116 25 -47 0 -54 2 -54 20
0 18 -7 20 -60 20 -53 0 -60 2 -60 20 0 18 -7 20 -61 20 -52 0 -62 3 -66 20
-4 14 -14 20 -33 20 -47 0 -90 12 -90 25 0 8 -18 16 -40 20 -24 4 -40 12 -40
20 0 9 -17 16 -45 21 -35 5 -45 10 -45 25 0 15 -7 19 -40 19 -33 0 -40 3 -40
20 0 17 -7 20 -40 20 -33 0 -40 3 -40 20 0 14 -7 20 -21 20 -12 0 -23 8 -26
20 -4 15 -14 20 -40 20 -26 0 -36 5 -40 20 -3 11 -12 20 -20 20 -8 0 -17 9
-20 19 -3 13 -17 22 -44 26 -29 5 -39 11 -39 26 0 14 -7 19 -25 19 -18 0 -25
5 -25 20 0 13 -7 20 -20 20 -13 0 -20 7 -20 19 0 15 -10 21 -40 26 -30 5 -40
11 -40 26 0 12 -7 19 -20 19 -13 0 -20 7 -20 20 0 13 -7 20 -20 20 -13 0 -20
7 -20 20 0 13 -7 20 -20 20 -13 0 -20 7 -20 20 0 13 -7 20 -20 20 -13 0 -20 7
-20 19 0 13 -8 21 -22 23 -15 2 -24 11 -26 26 -2 12 -10 22 -17 22 -8 0 -17
15 -21 35 -4 25 -11 35 -25 35 -14 0 -19 7 -19 25 0 18 -5 25 -20 25 -13 0
-20 7 -20 20 0 13 -7 20 -19 20 -15 0 -21 10 -26 40 -5 30 -11 40 -26 40 -14
0 -19 7 -19 25 0 18 -5 25 -20 25 -17 0 -20 7 -20 40 0 33 -3 40 -20 40 -13 0
-20 7 -20 20 0 13 -7 20 -20 20 -17 0 -20 7 -20 40 0 33 -3 40 -20 40 -17 0
-20 7 -20 41 0 32 -4 42 -19 46 -13 3 -22 17 -26 44 -4 23 -12 39 -20 39 -9 0
-16 17 -21 45 -3 26 -12 45 -19 45 -15 0 -25 31 -25 83 0 30 -4 37 -20 37 -18
0 -20 7 -20 60 0 53 -2 60 -20 60 -18 0 -20 7 -20 65 0 58 -2 65 -20 65 -17 0
-20 7 -20 49 0 67 -10 111 -25 111 -9 0 -15 28 -20 90 -5 62 -11 90 -20 90
-16 0 -25 75 -25 211 0 98 -2 107 -20 112 -20 5 -20 14 -20 410 0 222 3 419 6
436 4 17 13 31 20 31 11 0 14 24 14 113 0 134 8 187 26 187 10 0 14 13 14 39
0 79 13 161 25 161 15 0 25 45 25 116 0 47 2 54 20 54 18 0 20 7 20 65 0 58 2
65 20 65 18 0 20 7 20 60 0 53 2 60 20 60 16 0 20 7 20 38 0 51 10 82 25 82 7
0 16 19 19 45 5 28 12 45 21 45 8 0 16 16 20 39 4 27 13 41 26 44 14 4 19 14
19 41 0 29 4 36 20 36 15 0 20 7 20 25 0 18 5 25 20 25 17 0 20 7 20 40 0 32
4 40 19 40 14 0 20 10 25 40 4 26 11 40 21 40 9 0 15 9 15 21 0 12 8 23 19 26
11 3 21 13 24 24 3 11 14 19 26 19 14 0 21 6 21 20 0 11 6 20 14 20 9 0 17 15
21 40 5 30 11 40 26 40 12 0 19 7 19 20 0 13 7 20 20 20 15 0 20 7 20 25 0 18
5 25 20 25 13 0 20 7 20 20 0 13 7 20 20 20 13 0 20 7 20 20 0 15 7 20 25 20
18 0 25 5 25 20 0 13 7 20 20 20 13 0 20 7 20 20 0 13 7 20 20 20 13 0 20 7
20 20 0 14 7 20 21 20 12 0 23 8 26 20 3 13 17 22 39 26 24 4 34 12 34 25 0
14 7 19 25 19 18 0 25 5 25 20 0 13 7 20 20 20 13 0 20 7 20 19 0 15 10 21 40
26 26 4 40 12 40 22 0 8 9 17 19 20 11 3 21 13 24 24 4 15 14 19 46 19 34 0
41 3 41 20 0 13 7 20 20 20 11 0 20 6 20 14 0 9 15 17 40 21 30 5 40 11 40 26
0 16 7 19 45 19 38 0 45 3 45 20 0 15 7 20 29 20 49 0 91 12 91 26 0 8 18 15
45 20 26 3 45 12 45 19 0 15 31 25 83 25 30 0 37 4 37 20 0 18 7 20 59 20 50
0 59 3 64 20 5 18 14 20 86 20 74 0 81 2 81 20 0 18 7 20 85 20 78 0 85 2 85
20 0 19 7 20 134 20 149 0 196 6 196 26 0 8 17 14 48 17 85 6 715 7 815 0z"/>
<path d="M6763 4393 c-145 -3 -153 -5 -153 -23 0 -18 -7 -20 -85 -20 -78 0
-85 -2 -85 -20 0 -15 -7 -20 -29 -20 -49 0 -91 -12 -91 -26 0 -8 -9 -14 -21
-14 -12 0 -23 -8 -26 -19 -3 -13 -17 -22 -44 -26 -29 -5 -39 -11 -39 -26 0
-12 -7 -19 -20 -19 -13 0 -20 -7 -20 -20 0 -17 -7 -20 -40 -20 -33 0 -40 -3
-40 -20 0 -13 -7 -20 -20 -20 -14 0 -20 -7 -20 -21 0 -12 -8 -23 -20 -26 -12
-3 -22 -17 -26 -38 -4 -21 -13 -35 -25 -38 -11 -3 -19 -14 -19 -26 0 -14 -6
-21 -20 -21 -15 0 -20 -7 -20 -25 0 -15 -6 -25 -15 -25 -10 0 -17 -14 -21 -40
-5 -30 -11 -40 -25 -40 -14 0 -19 -7 -19 -29 0 -49 -12 -91 -26 -91 -9 0 -14
-11 -14 -27 0 -52 -13 -103 -25 -103 -19 0 -25 -83 -25 -370 0 -280 5 -340 25
-340 9 0 15 -26 20 -80 6 -69 10 -80 26 -80 16 0 19 -7 19 -45 0 -33 4 -45 15
-45 10 0 17 -14 21 -40 5 -30 11 -40 25 -40 15 0 19 -8 19 -40 0 -33 3 -40 20
-40 13 0 20 -7 20 -20 0 -13 7 -20 19 -20 15 0 21 -10 26 -40 5 -30 11 -40 26
-40 12 0 19 -7 19 -19 0 -10 9 -21 20 -24 11 -3 20 -12 20 -20 0 -10 14 -18
40 -22 30 -5 40 -11 40 -26 0 -12 7 -19 20 -19 13 0 20 -7 20 -19 0 -14 10
-20 40 -25 24 -4 40 -12 40 -20 0 -8 16 -16 40 -20 24 -4 40 -12 40 -20 0 -9
17 -16 45 -20 27 -5 45 -12 45 -20 0 -16 44 -26 116 -26 47 0 54 -2 54 -20 0
-20 7 -20 331 -20 322 0 331 1 336 20 4 16 14 20 53 20 67 0 110 10 110 26 0
9 20 15 59 20 46 5 60 11 64 25 4 15 14 19 46 19 34 0 41 3 41 20 0 17 7 20
40 20 33 0 40 3 40 20 0 17 7 20 40 20 33 0 40 3 40 20 0 15 7 20 25 20 18 0
25 5 25 20 0 13 7 20 20 20 13 0 20 7 20 20 0 13 7 20 19 20 19 0 31 39 31
103 0 17 5 27 15 27 13 0 15 41 15 310 0 263 -2 310 -14 310 -10 0 -17 16 -22
45 -5 35 -10 45 -25 45 -12 0 -19 7 -19 20 0 13 -7 20 -20 20 -13 0 -20 7 -20
19 0 16 -11 19 -92 25 -116 8 -701 8 -750 0 -28 -5 -38 -11 -38 -25 0 -12 -7
-19 -20 -19 -13 0 -20 -7 -20 -20 0 -13 -7 -20 -20 -20 -18 0 -20 -7 -20 -85
0 -78 2 -85 20 -85 13 0 20 -7 20 -20 0 -15 7 -20 25 -20 18 0 25 -5 25 -20 0
-19 8 -20 268 -22 l267 -3 0 -205 0 -205 -42 -3 c-35 -3 -43 -7 -43 -23 0 -16
-7 -19 -40 -19 -33 0 -40 -3 -40 -20 0 -18 -7 -20 -61 -20 -52 0 -62 -3 -66
-20 -4 -15 -14 -20 -42 -20 -88 0 -171 -13 -171 -26 0 -11 -19 -14 -80 -14
-61 0 -80 3 -80 14 0 14 -78 26 -166 26 -37 0 -44 3 -44 20 0 17 -7 20 -40 20
-33 0 -40 3 -40 20 0 17 -7 20 -40 20 -33 0 -40 3 -40 20 0 15 -7 20 -25 20
-18 0 -25 5 -25 19 0 10 -9 21 -20 24 -12 3 -20 14 -20 26 0 14 -6 21 -19 21
-14 0 -21 10 -25 35 -4 21 -13 35 -21 35 -9 0 -15 10 -15 25 0 18 -5 25 -20
25 -15 0 -20 7 -20 29 0 48 -12 91 -25 91 -15 0 -25 45 -25 116 0 39 -4 54
-14 54 -21 0 -26 47 -26 237 0 166 1 175 20 180 17 5 20 14 20 67 0 73 8 106
25 106 13 0 25 43 25 91 0 22 5 29 20 29 17 0 20 7 20 40 0 33 3 40 20 40 15
0 20 7 20 25 0 18 5 25 20 25 13 0 20 7 20 20 0 13 7 20 20 20 13 0 20 7 20
20 0 14 7 20 21 20 12 0 23 8 26 19 3 12 17 21 39 26 19 3 34 12 34 19 0 9 17
16 45 20 27 5 45 12 45 21 0 9 23 15 80 20 58 5 80 11 80 21 0 11 23 14 110
14 87 0 110 -3 110 -14 0 -10 22 -16 80 -21 69 -6 80 -10 80 -26 0 -15 7 -19
40 -19 33 0 40 -3 40 -20 0 -13 7 -20 19 -20 10 0 21 -9 24 -20 3 -12 14 -20
26 -20 14 0 21 -6 21 -20 0 -13 7 -20 20 -20 17 0 20 -7 20 -40 0 -33 3 -40
20 -40 15 0 20 -7 20 -25 0 -18 5 -25 19 -25 15 0 21 -10 26 -40 5 -30 11 -40
26 -40 12 0 19 -7 19 -20 0 -17 7 -20 41 -20 32 0 42 -4 46 -20 5 -17 14 -20
59 -20 47 0 54 2 54 20 0 17 7 20 45 20 38 0 45 3 45 20 0 13 7 20 20 20 15 0
20 7 20 25 0 18 5 25 20 25 19 0 20 7 20 100 0 93 -1 100 -20 100 -17 0 -20 7
-20 41 0 32 -4 42 -20 46 -15 4 -20 14 -20 39 0 27 -4 34 -20 34 -14 0 -20 7
-20 21 0 12 -8 23 -19 26 -11 3 -21 13 -24 24 -3 11 -14 19 -26 19 -14 0 -21
6 -21 20 0 13 -7 20 -20 20 -13 0 -20 7 -20 19 0 15 -10 21 -39 26 -27 4 -41
13 -44 26 -3 11 -14 19 -26 19 -12 0 -21 6 -21 14 0 16 -30 26 -82 26 -31 0
-38 4 -38 20 0 18 -7 20 -60 20 -53 0 -60 2 -60 20 0 19 -7 20 -162 20 -90 0
-172 2 -183 3 -11 2 -89 1 -172 0z"/>
<path d="M13908 4393 c-40 -3 -48 -8 -48 -24 0 -12 -7 -19 -20 -19 -13 0 -20
-7 -20 -20 0 -13 -7 -20 -19 -20 -15 0 -19 -11 -24 -67 -9 -88 -9 -2027 -1
-2115 5 -53 10 -67 25 -71 11 -3 19 -14 19 -26 0 -14 6 -21 20 -21 13 0 20 -7
20 -20 0 -19 7 -20 125 -20 118 0 125 1 125 20 0 13 7 20 19 20 14 0 20 10 25
40 4 24 12 40 20 40 21 0 26 112 26 562 0 356 2 408 15 408 10 0 15 10 15 28
0 54 13 102 26 102 8 0 16 16 20 40 5 30 11 40 25 40 12 0 19 7 19 20 0 13 7
20 20 20 13 0 20 7 20 20 0 14 7 20 21 20 12 0 23 8 26 20 4 16 14 20 53 20
67 0 110 10 110 26 0 8 9 14 20 14 13 0 20 -7 20 -20 0 -18 7 -20 79 -20 70 0
79 -2 84 -20 3 -11 14 -20 25 -20 15 0 21 -9 26 -40 4 -26 11 -40 21 -40 10 0
15 -11 15 -34 0 -54 11 -96 26 -96 12 0 14 -86 14 -521 0 -512 0 -521 20 -526
15 -4 20 -14 20 -40 0 -26 5 -36 19 -40 11 -3 21 -13 24 -24 5 -17 16 -19 127
-19 111 0 122 2 127 19 3 11 13 21 24 24 11 3 19 14 19 26 0 14 6 21 20 21 20
0 20 7 20 645 0 638 0 645 -20 645 -18 0 -20 7 -20 60 0 52 -2 60 -19 60 -15
0 -21 10 -26 39 -4 27 -13 41 -26 44 -11 3 -19 14 -19 26 0 14 -6 21 -20 21
-13 0 -20 7 -20 20 0 17 -7 20 -40 20 -32 0 -40 4 -40 19 0 14 -10 20 -40 25
-26 4 -40 11 -40 21 0 10 -11 15 -34 15 -54 0 -96 11 -96 26 0 11 -23 14 -105
14 -84 0 -105 -3 -105 -14 0 -11 -20 -16 -79 -22 -66 -5 -80 -10 -84 -25 -4
-15 -14 -19 -46 -19 -34 0 -41 -3 -41 -20 0 -13 -7 -20 -20 -20 -13 0 -20 -7
-20 -19 0 -14 -10 -20 -40 -25 -31 -5 -40 -11 -40 -26 0 -13 -7 -20 -20 -20
-11 0 -20 -7 -20 -15 0 -8 -9 -15 -20 -15 -23 0 -22 -21 -20 330 2 290 -6 420
-26 420 -8 0 -16 16 -20 40 -5 30 -11 40 -25 40 -12 0 -19 7 -19 20 0 18 -7
20 -57 20 -32 0 -67 2 -78 4 -11 1 -41 1 -67 -1z"/>
<path d="M15900 4370 c0 -13 -7 -20 -20 -20 -13 0 -20 -7 -20 -20 0 -13 -7
-20 -20 -20 -13 0 -20 -7 -20 -20 0 -13 -7 -20 -20 -20 -19 0 -20 -7 -20 -105
0 -98 1 -105 20 -105 13 0 20 -7 20 -20 0 -14 7 -20 21 -20 12 0 23 -8 26 -19
7 -26 30 -31 146 -31 90 0 97 1 97 20 0 13 7 20 20 20 14 0 20 7 20 21 0 12 8
23 19 26 28 7 39 100 25 207 -5 36 -11 46 -25 46 -12 0 -19 7 -19 20 0 17 -7
20 -40 20 -33 0 -40 3 -40 20 0 18 -7 20 -85 20 -78 0 -85 -2 -85 -20z"/>
<path d="M190 4330 c0 -13 -7 -20 -20 -20 -13 0 -20 -7 -20 -20 0 -13 -7 -20
-20 -20 -17 0 -20 -7 -20 -45 0 -38 -3 -45 -20 -45 -20 0 -20 -7 -20 -980 0
-825 2 -980 14 -980 14 0 26 -42 26 -91 0 -22 5 -29 20 -29 13 0 20 -7 20 -20
0 -13 7 -20 20 -20 13 0 20 -7 20 -19 0 -15 11 -19 61 -25 79 -8 1486 -8 1527
0 18 4 32 14 35 25 3 11 14 19 26 19 14 0 21 6 21 20 0 11 6 20 14 20 18 0 26
31 26 103 0 50 -2 57 -20 57 -14 0 -20 7 -20 21 0 12 -8 23 -19 26 -11 3 -21
13 -24 24 -5 18 -23 19 -566 19 -492 0 -561 2 -561 15 0 11 -11 15 -40 15 -29
0 -40 -4 -40 -15 0 -8 -9 -15 -20 -15 -13 0 -20 7 -20 20 0 13 -7 20 -20 20
-20 0 -20 7 -20 310 0 262 2 310 14 310 8 0 16 10 18 23 l3 22 543 3 c534 2
542 2 542 22 0 17 7 20 40 20 l40 0 0 41 c0 32 4 42 20 46 28 8 28 68 0 76
-16 4 -20 14 -20 46 0 34 -3 41 -20 41 -13 0 -20 7 -20 20 0 20 -7 20 -560 20
l-560 0 0 21 c0 12 -8 23 -20 26 -18 5 -20 14 -20 104 0 81 3 99 15 99 8 0 15
9 15 20 0 11 -7 20 -15 20 -13 0 -15 23 -15 145 0 119 3 145 14 145 8 0 16 10
18 23 l3 22 601 3 c591 2 602 2 607 22 3 12 14 20 26 20 14 0 21 6 21 20 0 11
6 20 14 20 16 0 26 43 26 111 0 42 -3 49 -19 49 -13 0 -21 8 -23 23 -2 14 -11
23 -25 25 -15 2 -23 10 -23 23 0 19 -16 19 -790 19 -783 0 -790 0 -790 -20z"/>
<path d="M5237 3740 c-4 -16 -14 -20 -46 -20 -34 0 -41 -3 -41 -20 0 -13 -7
-20 -19 -20 -15 0 -21 -10 -26 -40 -4 -25 -12 -40 -21 -40 -10 0 -14 -12 -14
-40 0 -33 -3 -40 -20 -40 -16 0 -20 -7 -20 -34 0 -53 -11 -96 -25 -96 -13 0
-25 -43 -25 -90 0 -19 -6 -29 -20 -33 -16 -4 -20 -14 -20 -46 0 -34 -3 -41
-20 -41 -18 0 -20 -7 -20 -65 0 -58 -2 -65 -20 -65 -18 0 -20 -7 -20 -60 0
-53 -2 -60 -20 -60 -18 0 -20 -7 -20 -61 0 -52 -3 -62 -20 -66 -14 -4 -20 -14
-20 -33 0 -47 -12 -90 -25 -90 -13 0 -25 -43 -25 -90 0 -19 -6 -29 -20 -33
-16 -4 -20 -14 -20 -46 l0 -41 -40 0 c-39 0 -40 1 -40 34 0 54 -11 96 -26 96
-9 0 -14 11 -14 29 0 48 -12 91 -25 91 -13 0 -25 43 -25 90 0 19 -6 29 -20 33
-17 4 -20 14 -20 66 0 54 -2 61 -20 61 -18 0 -20 7 -20 59 0 50 -3 59 -20 64
-17 4 -20 14 -20 66 0 54 -2 61 -20 61 -17 0 -20 7 -20 41 0 32 -4 42 -20 46
-17 5 -20 14 -20 64 0 51 -3 59 -19 59 -20 0 -31 34 -31 96 0 23 -5 34 -15 34
-10 0 -17 14 -21 40 -5 30 -11 40 -25 40 -13 0 -19 9 -21 38 l-3 37 -67 9
c-38 4 -93 5 -123 1 -45 -5 -55 -10 -55 -26 0 -12 -7 -19 -20 -19 -13 0 -20
-7 -20 -20 0 -13 -7 -20 -20 -20 -19 0 -20 -7 -20 -105 0 -98 1 -105 20 -105
18 0 20 -7 20 -60 0 -53 2 -60 20 -60 16 0 20 -7 20 -34 0 -53 11 -96 25 -96
8 0 16 -18 20 -40 4 -22 12 -40 20 -40 13 0 25 -43 25 -90 0 -19 6 -29 20 -33
16 -4 20 -14 20 -46 0 -34 3 -41 20 -41 18 0 20 -7 20 -60 0 -53 2 -60 20 -60
17 0 20 -7 20 -45 0 -38 3 -45 20 -45 18 0 20 -7 20 -60 0 -53 2 -60 19 -60
16 0 21 -9 27 -45 3 -26 12 -45 19 -45 13 0 25 -43 25 -91 0 -22 5 -29 20 -29
17 0 20 -7 20 -45 0 -38 3 -45 20 -45 18 0 20 -7 20 -60 0 -53 2 -60 20 -60
17 0 20 -7 20 -45 0 -38 3 -45 20 -45 17 0 20 -7 20 -40 0 -33 -3 -40 -20 -40
-18 0 -20 -7 -20 -60 0 -53 -2 -60 -20 -60 -17 0 -20 -7 -20 -45 0 -38 -3 -45
-19 -45 -15 0 -21 -10 -26 -40 -6 -38 -9 -40 -41 -40 -27 0 -34 -4 -34 -20 0
-19 -7 -20 -190 -20 -183 0 -190 -1 -190 -20 0 -13 -7 -20 -20 -20 -15 0 -20
-7 -20 -25 0 -18 -5 -25 -20 -25 -17 0 -20 -7 -20 -40 0 -28 4 -40 14 -40 9 0
17 -15 21 -40 5 -30 11 -40 26 -40 12 0 19 -7 19 -20 0 -17 7 -20 40 -20 33 0
40 -3 40 -20 0 -19 7 -20 210 -20 172 0 210 3 210 14 0 14 41 26 90 26 19 0
29 6 33 20 4 15 14 20 41 20 29 0 36 4 36 20 0 15 7 20 25 20 18 0 25 5 25 20
0 13 7 20 20 20 17 0 20 7 20 40 0 32 4 40 19 40 14 0 20 10 25 40 4 24 12 40
20 40 9 0 16 17 20 45 5 28 12 45 21 45 8 0 16 16 20 40 4 24 12 40 20 40 9 0
16 17 21 45 3 26 12 45 19 45 13 0 25 43 25 91 0 22 5 29 20 29 18 0 20 7 20
65 0 58 2 65 20 65 17 0 20 7 20 41 0 32 4 42 20 46 17 5 20 14 20 60 0 46 3
56 20 60 14 4 20 14 20 33 0 53 12 88 31 93 15 4 19 14 19 46 0 34 3 41 20 41
18 0 20 7 20 60 0 53 2 60 20 60 17 0 20 7 20 45 0 38 3 45 20 45 18 0 20 7
20 60 0 53 2 60 20 60 15 0 20 7 20 29 0 49 12 91 26 91 10 0 14 13 14 41 0
32 4 42 19 46 19 5 31 40 31 94 0 22 5 29 20 29 18 0 20 7 20 60 0 53 2 60 20
60 18 0 20 7 20 65 0 58 2 65 20 65 18 0 20 7 20 85 0 78 -2 85 -20 85 -13 0
-20 7 -20 20 0 13 -7 20 -20 20 -13 0 -20 7 -20 19 0 15 -10 20 -45 25 -29 5
-45 12 -45 22 0 21 -27 17 -33 -6z"/>
<path d="M8560 3745 c0 -10 -14 -17 -40 -21 -30 -5 -40 -11 -40 -25 0 -12 -7
-19 -20 -19 -17 0 -20 -7 -20 -40 0 -33 -3 -40 -20 -40 -20 0 -20 -7 -20 -750
0 -726 1 -750 19 -750 14 0 20 -10 25 -40 4 -27 11 -40 22 -40 9 0 18 -9 21
-19 7 -26 30 -31 146 -31 91 0 99 2 104 20 3 11 12 20 20 20 8 0 17 9 20 19 3
11 13 21 24 24 18 5 19 19 19 316 0 255 2 311 14 311 17 0 26 90 26 278 0 114
3 142 14 142 14 0 26 42 26 91 0 22 5 29 19 29 14 0 20 10 25 39 4 27 12 40
26 44 11 3 20 12 20 20 0 17 29 27 83 27 30 0 37 4 37 20 0 16 7 20 38 20 52
0 82 -10 82 -26 0 -10 15 -14 54 -14 73 0 116 -10 116 -26 0 -10 13 -14 41
-14 32 0 42 4 46 20 4 16 14 20 44 20 39 0 39 0 39 40 0 33 3 40 20 40 18 0
20 7 20 58 0 71 -8 102 -26 102 -8 0 -14 10 -14 25 0 20 -5 25 -25 25 -18 0
-25 5 -25 20 0 17 -7 20 -40 20 -33 0 -40 3 -40 20 0 16 -7 20 -34 20 -54 0
-96 11 -96 26 0 11 -22 14 -100 14 -82 0 -100 -3 -100 -15 0 -10 -14 -17 -41
-21 -29 -5 -43 -13 -46 -25 -3 -11 -14 -19 -24 -19 -12 0 -19 -7 -19 -20 0
-13 -7 -20 -20 -20 -13 0 -20 -7 -20 -20 0 -13 -7 -20 -20 -20 -13 0 -20 -7
-20 -20 0 -13 -7 -20 -20 -20 -15 0 -20 -7 -20 -25 0 -18 -5 -25 -20 -25 -16
0 -20 7 -20 34 0 54 -11 96 -26 96 -8 0 -14 9 -14 20 0 13 -7 20 -20 20 -13 0
-20 7 -20 20 0 14 -7 20 -21 20 -12 0 -23 8 -26 20 -5 17 -14 20 -69 20 -50 0
-64 -3 -64 -15z"/>
<path d="M10360 3746 c0 -14 -78 -26 -166 -26 -37 0 -44 -3 -44 -20 0 -17 -7
-20 -41 -20 -32 0 -42 -4 -46 -20 -4 -16 -14 -20 -44 -20 -32 0 -39 -4 -39
-19 0 -16 -8 -20 -37 -23 -31 -2 -39 -7 -41 -25 -2 -15 -10 -23 -23 -23 -12 0
-19 -7 -19 -20 0 -13 -7 -20 -20 -20 -17 0 -20 -7 -20 -40 0 -32 -4 -40 -19
-40 -16 0 -19 -11 -25 -80 -10 -106 0 -170 25 -170 12 0 19 -7 19 -20 0 -17 7
-20 40 -20 33 0 40 -3 40 -20 0 -18 7 -20 56 -20 47 0 57 3 61 20 3 13 14 20
29 20 19 0 24 5 24 25 0 15 6 25 15 25 8 0 17 14 21 35 4 25 11 35 25 35 14 0
19 7 19 25 0 18 5 25 20 25 13 0 20 7 20 20 0 13 7 20 20 20 13 0 20 7 20 19
0 14 10 20 40 25 24 4 40 12 40 20 0 15 158 24 327 18 80 -3 92 -6 96 -23 3
-11 14 -19 26 -19 14 0 21 -6 21 -20 0 -13 7 -20 20 -20 17 0 20 -7 20 -41 0
-32 4 -42 20 -46 18 -5 20 -14 20 -84 l0 -79 -29 0 c-49 0 -91 -12 -91 -26 0
-9 -12 -14 -32 -14 -57 0 -108 -12 -108 -25 0 -13 -71 -25 -152 -25 -34 0 -48
-4 -48 -14 0 -17 -44 -26 -132 -26 -61 0 -71 -2 -75 -20 -5 -18 -14 -20 -84
-20 -72 0 -79 -2 -79 -20 0 -17 -7 -20 -45 -20 -38 0 -45 -3 -45 -19 0 -15
-10 -21 -40 -26 -25 -4 -40 -12 -40 -21 0 -8 -7 -14 -15 -14 -9 0 -20 -11 -25
-25 -5 -14 -16 -25 -25 -25 -8 0 -15 -9 -15 -20 0 -13 -7 -20 -19 -20 -15 0
-21 -10 -26 -40 -4 -22 -12 -40 -20 -40 -19 0 -25 -48 -25 -194 0 -141 5 -176
25 -176 7 0 16 -19 19 -45 6 -36 11 -45 27 -45 12 0 19 -7 19 -20 0 -13 7 -20
20 -20 13 0 20 -7 20 -20 0 -13 7 -20 20 -20 13 0 20 -7 20 -19 0 -15 10 -21
40 -26 30 -5 40 -11 40 -26 0 -15 7 -19 39 -19 30 0 40 -4 44 -20 5 -19 14
-20 236 -20 224 0 231 1 231 20 0 18 7 20 60 20 52 0 60 2 60 19 0 15 10 21
40 26 23 4 40 12 40 20 0 8 17 16 40 20 30 5 40 11 40 26 0 14 7 19 25 19 18
0 25 5 25 19 0 13 10 20 31 25 46 9 49 8 59 -19 5 -14 14 -25 20 -25 5 0 10
-9 10 -20 0 -13 7 -20 20 -20 14 0 20 -7 20 -21 0 -12 8 -23 19 -26 11 -3 21
-13 24 -24 3 -11 14 -19 26 -19 14 0 21 -6 21 -20 0 -19 7 -20 105 -20 98 0
105 1 105 20 0 13 7 20 20 20 13 0 20 7 20 20 0 13 7 20 20 20 19 0 20 7 20
110 0 103 -1 110 -20 110 -18 0 -20 7 -20 69 0 87 -9 131 -26 131 -12 0 -14
71 -14 423 0 436 -3 497 -26 497 -8 0 -15 18 -20 45 -4 28 -11 45 -20 45 -8 0
-16 16 -20 40 -5 30 -11 40 -25 40 -12 0 -19 7 -19 20 0 13 -7 20 -20 20 -13
0 -20 7 -20 20 0 17 -7 20 -40 20 -33 0 -40 3 -40 20 0 17 -7 20 -45 20 -38 0
-45 3 -45 20 0 17 -7 20 -39 20 -83 0 -161 13 -161 26 0 11 -37 14 -190 14
-153 0 -190 -3 -190 -14z m498 -1047 c2 -140 2 -147 -18 -152 -17 -4 -20 -13
-20 -61 0 -49 -2 -56 -20 -56 -13 0 -20 -7 -20 -20 0 -13 -7 -20 -20 -20 -13
0 -20 -7 -20 -20 0 -14 -7 -20 -21 -20 -12 0 -23 -8 -26 -19 -3 -13 -17 -22
-44 -26 -22 -4 -39 -12 -39 -20 0 -17 -45 -25 -136 -25 -59 0 -74 -3 -74 -15
0 -8 -9 -15 -20 -15 -11 0 -20 6 -20 14 0 9 -18 15 -57 18 -32 3 -59 10 -61
17 -2 7 -15 16 -28 21 -13 5 -24 16 -24 24 0 7 -9 16 -20 19 -16 4 -20 14 -20
46 0 34 -3 41 -20 41 -18 0 -20 7 -20 59 0 50 3 59 20 64 16 4 20 14 20 46 0
35 3 41 21 41 12 0 23 8 26 20 4 16 14 20 44 20 32 0 39 3 39 20 0 18 7 20 81
20 72 0 81 2 86 20 4 15 14 20 43 20 78 0 160 13 160 25 0 14 44 25 96 25 23
0 34 5 34 14 0 8 10 17 23 19 52 10 52 12 55 -144z"/>
<path d="M11817 3740 c-3 -12 -14 -20 -26 -20 -12 0 -21 -6 -21 -14 0 -7 -9
-16 -20 -19 -12 -3 -20 -14 -20 -26 0 -12 -6 -21 -14 -21 -7 0 -16 -14 -20
-31 -3 -17 -6 -501 -6 -1074 0 -573 3 -1057 6 -1074 4 -17 13 -31 20 -31 10 0
14 -13 14 -39 0 -33 4 -40 23 -43 14 -2 23 -11 25 -25 3 -22 7 -23 104 -23 90
0 100 2 105 19 3 11 13 21 24 24 10 3 19 12 19 20 0 8 9 17 20 20 16 4 20 14
20 46 0 34 3 41 20 41 20 0 20 7 20 375 0 368 0 375 20 375 13 0 20 -7 20 -20
0 -13 7 -20 20 -20 13 0 20 -7 20 -20 0 -13 7 -20 19 -20 10 0 21 -9 24 -20 3
-12 14 -20 26 -20 14 0 21 -6 21 -19 0 -15 10 -21 40 -26 30 -5 40 -11 40 -26
0 -16 7 -19 40 -19 33 0 40 -3 40 -20 0 -19 7 -20 230 -20 223 0 230 1 230 20
0 17 7 20 41 20 32 0 42 4 46 19 3 13 17 22 44 26 29 5 39 11 39 26 0 12 7 19
20 19 13 0 20 7 20 20 0 13 7 20 20 20 13 0 20 7 20 20 0 13 7 20 20 20 13 0
20 7 20 19 0 13 8 21 23 23 14 2 23 11 25 26 2 12 10 22 18 22 8 0 16 15 20
40 5 30 11 40 25 40 15 0 19 8 19 40 0 33 3 40 20 40 18 0 20 7 20 65 0 58 2
65 20 65 20 0 20 7 20 290 0 283 0 290 -20 290 -18 0 -20 7 -20 65 0 58 -2 65
-20 65 -17 0 -20 7 -20 40 0 33 -3 40 -20 40 -17 0 -20 7 -20 40 0 33 -3 40
-20 40 -14 0 -20 7 -20 21 0 12 -8 23 -20 26 -13 3 -22 17 -26 39 -4 24 -12
34 -25 34 -12 0 -19 7 -19 19 0 15 -10 21 -40 26 -30 5 -40 11 -40 26 0 14 -7
19 -25 19 -15 0 -25 6 -25 14 0 10 -20 19 -60 27 -38 7 -60 17 -60 25 0 9 -12
14 -34 14 -54 0 -96 11 -96 26 0 11 -22 14 -100 14 -78 0 -100 -3 -100 -14 0
-15 -42 -26 -96 -26 -23 0 -34 -5 -34 -15 0 -10 -14 -17 -40 -21 -30 -5 -40
-11 -40 -25 0 -15 -8 -19 -40 -19 -33 0 -40 -3 -40 -20 0 -14 -7 -20 -21 -20
-12 0 -23 -8 -26 -19 -3 -11 -13 -21 -24 -24 -10 -3 -19 -12 -19 -20 0 -8 -9
-17 -20 -20 -12 -3 -20 -14 -20 -26 0 -14 -6 -21 -20 -21 -18 0 -20 7 -20 61
0 52 -3 62 -20 66 -16 4 -20 14 -20 44 0 32 -3 39 -20 39 -13 0 -20 7 -20 19
0 14 -10 20 -40 25 -26 4 -40 11 -40 21 0 12 -14 15 -64 15 -55 0 -64 -3 -69
-20z m833 -330 c0 -17 7 -20 44 -20 35 0 45 -4 49 -20 4 -15 14 -20 36 -20 24
0 34 -6 41 -25 5 -14 16 -25 24 -25 8 0 17 -15 20 -35 4 -21 13 -35 21 -35 9
0 15 -10 15 -25 0 -18 5 -25 20 -25 18 0 20 -7 20 -54 0 -73 10 -116 26 -116
11 0 14 -29 14 -145 0 -116 -3 -145 -14 -145 -16 0 -26 -43 -26 -110 0 -39 -4
-49 -20 -53 -16 -4 -20 -14 -20 -46 0 -34 -3 -41 -20 -41 -13 0 -20 -7 -20
-20 0 -13 -7 -20 -20 -20 -13 0 -20 -7 -20 -20 0 -13 -7 -20 -20 -20 -13 0
-20 -7 -20 -19 0 -15 -10 -21 -40 -26 -22 -4 -40 -12 -40 -20 0 -16 -54 -25
-150 -25 -96 0 -150 9 -150 25 0 8 -18 16 -40 20 -30 5 -40 11 -40 26 0 12 -7
19 -20 19 -13 0 -20 7 -20 20 0 13 -7 20 -20 20 -15 0 -21 9 -26 40 -5 30 -11
40 -25 40 -15 0 -19 8 -19 39 0 30 -4 40 -20 44 -17 4 -20 14 -20 54 0 73 -11
123 -26 123 -11 0 -14 22 -14 100 0 78 3 100 14 100 16 0 26 43 26 116 0 47 2
54 20 54 17 0 20 7 20 40 0 33 3 40 20 40 14 0 20 7 20 21 0 12 8 23 19 26 12
3 21 17 26 39 5 30 10 35 45 40 30 5 40 11 40 25 0 16 8 19 41 19 32 0 42 4
46 20 5 18 14 20 104 20 92 0 99 -1 99 -20z"/>
<path d="M15940 3746 c0 -9 -15 -17 -40 -21 -30 -5 -40 -11 -40 -26 0 -12 -7
-19 -20 -19 -13 0 -20 -7 -20 -19 0 -10 -9 -21 -20 -24 -20 -5 -20 -14 -20
-776 0 -764 0 -771 20 -771 17 0 20 -7 20 -40 0 -33 3 -40 20 -40 13 0 20 -7
20 -20 0 -19 7 -20 125 -20 118 0 125 1 125 20 0 13 7 20 20 20 14 0 20 7 20
21 0 12 8 23 19 26 14 4 20 18 25 65 8 78 8 1431 0 1481 -4 20 -12 37 -19 37
-7 0 -15 9 -18 21 -3 11 -15 23 -26 26 -12 3 -21 11 -21 18 0 8 -17 16 -40 20
-25 4 -40 12 -40 21 0 10 -13 14 -45 14 -32 0 -45 -4 -45 -14z"/>
<path d="M17320 3746 c0 -11 -22 -16 -85 -21 -58 -5 -85 -11 -85 -20 0 -13
-43 -25 -91 -25 -22 0 -29 -5 -29 -19 0 -14 -10 -20 -40 -25 -26 -4 -40 -11
-40 -21 0 -9 -10 -15 -25 -15 -18 0 -25 -5 -25 -20 0 -13 -7 -20 -20 -20 -13
0 -20 -7 -20 -20 0 -13 -7 -20 -20 -20 -15 0 -20 -7 -20 -25 0 -18 -5 -25 -20
-25 -13 0 -20 -7 -20 -20 0 -13 -7 -20 -19 -20 -15 0 -21 -10 -26 -39 -4 -27
-13 -41 -26 -44 -14 -4 -19 -14 -19 -40 0 -26 -5 -36 -20 -40 -17 -4 -20 -14
-20 -66 0 -54 -2 -61 -20 -61 -19 0 -20 -7 -20 -145 0 -122 -2 -145 -15 -145
-8 0 -15 -9 -15 -20 0 -11 7 -20 15 -20 13 0 15 -23 15 -146 0 -134 1 -146 19
-151 14 -4 20 -17 24 -56 2 -30 11 -55 21 -62 9 -7 16 -20 16 -30 0 -9 9 -19
20 -22 14 -4 22 -17 26 -44 5 -29 11 -39 25 -39 12 0 19 -7 19 -20 0 -13 7
-20 20 -20 13 0 20 -7 20 -20 0 -13 7 -20 20 -20 13 0 20 -7 20 -20 0 -13 7
-20 20 -20 13 0 20 -7 20 -19 0 -14 10 -20 40 -25 25 -4 40 -12 40 -21 0 -9
16 -16 45 -21 35 -5 45 -10 45 -25 0 -17 8 -19 60 -19 53 0 60 -2 60 -20 0
-20 7 -20 271 -20 262 0 271 1 276 20 5 17 14 20 64 20 51 0 59 2 59 19 0 15
10 21 40 26 23 4 40 12 40 20 0 8 17 16 39 20 27 4 41 13 44 26 3 11 14 19 26
19 14 0 21 6 21 20 0 13 7 20 20 20 13 0 20 7 20 20 0 13 7 20 20 20 14 0 20
7 20 21 0 12 8 23 19 26 13 3 21 17 25 44 4 23 12 39 20 39 18 0 26 45 26 152
0 81 -2 90 -20 95 -11 3 -20 14 -20 24 0 12 -7 19 -20 19 -13 0 -20 7 -20 20
0 18 -7 20 -82 20 -113 0 -126 -5 -134 -46 -4 -24 -12 -34 -25 -34 -12 0 -19
-7 -19 -19 0 -10 -9 -21 -20 -24 -15 -4 -20 -14 -20 -41 0 -29 -4 -36 -20 -36
-15 0 -20 -7 -20 -25 0 -18 -5 -25 -20 -25 -13 0 -20 -7 -20 -20 0 -14 -7 -20
-21 -20 -12 0 -23 -8 -26 -19 -3 -13 -17 -22 -44 -26 -24 -4 -39 -12 -39 -21
0 -9 -11 -14 -27 -14 -55 0 -103 -13 -103 -26 0 -10 -13 -14 -40 -14 -28 0
-40 4 -40 14 0 10 -21 16 -79 21 -66 6 -80 10 -84 26 -3 11 -14 19 -26 19 -12
0 -21 6 -21 15 0 8 -14 17 -35 21 -31 6 -36 10 -41 45 -5 29 -11 39 -25 39
-14 0 -19 7 -19 25 0 18 -5 25 -20 25 -17 0 -20 7 -20 49 0 68 -10 111 -26
111 -11 0 -14 32 -14 170 0 138 3 170 14 170 18 0 26 31 26 103 0 50 2 57 20
57 14 0 20 7 20 24 0 15 7 26 19 29 11 3 22 17 26 36 4 18 13 31 22 31 8 0 17
9 20 20 4 14 17 22 44 26 29 5 39 11 39 25 0 15 8 19 38 19 52 0 82 10 82 26
0 11 16 14 65 14 48 0 65 -3 65 -14 0 -15 42 -26 96 -26 27 0 34 -4 34 -20 0
-16 7 -20 35 -20 28 0 35 -4 35 -20 0 -13 9 -22 25 -26 16 -4 25 -13 25 -25 0
-12 7 -19 20 -19 16 0 20 -7 20 -35 0 -28 4 -35 20 -35 15 0 20 -7 20 -25 0
-18 5 -25 20 -25 13 0 20 -7 20 -20 0 -14 7 -20 21 -20 12 0 23 -8 26 -20 5
-18 14 -20 84 -20 61 0 79 3 79 14 0 9 15 17 39 21 37 6 40 9 46 46 5 29 11
39 26 39 16 0 19 7 19 49 0 73 -10 109 -31 114 -15 4 -19 14 -19 46 0 34 -3
41 -20 41 -13 0 -20 7 -20 20 0 13 -7 20 -20 20 -14 0 -20 7 -20 21 0 12 -8
23 -20 26 -11 3 -20 14 -20 24 0 12 -7 19 -20 19 -13 0 -20 7 -20 20 0 15 -7
20 -25 20 -15 0 -25 6 -25 15 0 10 -14 17 -40 21 -22 4 -40 12 -40 19 0 15
-32 25 -82 25 -30 0 -38 4 -38 19 0 16 -11 20 -85 26 -63 5 -85 10 -85 21 0
11 -27 14 -145 14 -118 0 -145 -3 -145 -14z"/>
<path d="M2600 3705 c0 -13 -22 -15 -137 -15 -76 0 -168 -3 -205 -7 -57 -5
-68 -9 -68 -24 0 -12 -7 -19 -20 -19 -15 0 -20 -7 -20 -25 0 -18 -5 -25 -20
-25 -17 0 -20 -7 -20 -40 0 -33 3 -40 20 -40 17 0 20 -7 20 -40 l0 -40 60 0
c53 0 60 -2 60 -20 0 -20 7 -20 381 -20 l382 0 -7 -31 c-3 -17 -6 -35 -6 -39
0 -4 -9 -10 -20 -13 -12 -3 -20 -14 -20 -26 0 -14 -6 -21 -20 -21 -13 0 -20
-7 -20 -20 0 -13 -7 -20 -20 -20 -13 0 -20 -7 -20 -20 0 -13 -7 -20 -20 -20
-13 0 -20 -7 -20 -20 0 -13 -7 -20 -20 -20 -14 0 -20 -7 -20 -21 0 -12 -8 -23
-19 -26 -12 -3 -21 -17 -25 -38 -4 -21 -14 -35 -26 -38 -12 -3 -20 -14 -20
-26 0 -14 -6 -21 -20 -21 -13 0 -20 -7 -20 -20 0 -13 -7 -20 -20 -20 -13 0
-20 -7 -20 -20 0 -13 -7 -20 -20 -20 -13 0 -20 -7 -20 -20 0 -13 -7 -20 -20
-20 -14 0 -20 -7 -20 -21 0 -12 -8 -23 -20 -26 -11 -3 -20 -14 -20 -24 0 -12
-7 -19 -20 -19 -13 0 -20 -7 -20 -20 0 -13 -7 -20 -20 -20 -13 0 -20 -7 -20
-20 0 -15 -7 -20 -25 -20 -20 0 -25 -5 -25 -25 0 -18 -5 -25 -20 -25 -16 0
-20 -7 -20 -35 0 -28 -4 -35 -20 -35 -14 0 -20 -7 -20 -21 0 -12 -8 -23 -19
-26 -11 -3 -21 -13 -24 -24 -3 -11 -14 -19 -26 -19 -14 0 -21 -6 -21 -20 0
-13 -7 -20 -20 -20 -13 0 -20 -7 -20 -20 0 -13 -7 -20 -20 -20 -15 0 -20 -7
-20 -25 0 -18 -5 -25 -20 -25 -17 0 -20 -7 -20 -40 0 -33 -3 -40 -20 -40 -18
0 -20 -7 -20 -65 0 -50 3 -65 15 -65 8 0 17 -14 21 -35 4 -25 11 -35 25 -35
12 0 19 -7 19 -19 0 -14 10 -20 38 -25 49 -8 1390 -8 1431 0 21 5 31 12 31 25
0 12 7 19 20 19 16 0 20 7 20 36 0 27 5 37 20 41 16 4 20 14 20 44 0 32 -3 39
-20 39 -13 0 -20 7 -20 20 0 13 -7 20 -20 20 -13 0 -20 7 -20 19 0 16 -9 21
-45 27 -28 4 -45 11 -45 20 0 12 -69 14 -424 14 -233 0 -438 3 -455 6 -36 8
-45 44 -11 44 13 0 20 7 20 20 0 13 7 20 20 20 13 0 20 7 20 20 0 13 7 20 20
20 14 0 20 7 20 21 0 12 8 23 20 26 11 3 20 12 20 20 0 8 9 17 20 20 13 3 22
17 26 39 4 24 12 34 25 34 14 0 19 7 19 25 0 18 5 25 20 25 13 0 20 7 20 20 0
14 7 20 21 20 12 0 23 8 26 20 3 11 11 20 18 20 8 0 15 10 17 23 2 14 11 23
26 25 14 2 22 10 22 23 0 12 7 19 20 19 13 0 20 7 20 20 0 13 7 20 20 20 13 0
20 7 20 20 0 13 7 20 20 20 15 0 20 7 20 25 0 18 5 25 20 25 13 0 20 7 20 20
0 13 7 20 19 20 15 0 21 10 26 40 5 30 11 40 26 40 12 0 19 7 19 20 0 13 7 20
20 20 13 0 20 7 20 20 0 13 7 20 20 20 13 0 20 7 20 20 0 13 7 20 20 20 15 0
20 7 20 25 0 18 5 25 20 25 13 0 20 7 20 20 0 13 7 20 20 20 13 0 20 7 20 20
0 15 7 20 25 20 23 0 25 4 25 40 0 34 3 40 20 40 20 0 21 5 18 103 -3 97 -4
102 -25 105 -15 2 -23 10 -23 23 0 17 -8 19 -101 19 -92 0 -101 2 -106 20 -6
23 -43 27 -43 5 0 -8 -7 -15 -15 -15 -8 0 -15 7 -15 15 0 12 -14 15 -65 15
-51 0 -65 -3 -65 -15 0 -8 -9 -15 -20 -15 -11 0 -20 7 -20 15 0 13 -25 15
-165 15 -140 0 -165 -2 -165 -15 0 -11 -12 -15 -45 -15 -33 0 -45 4 -45 15 0
11 -12 15 -45 15 -33 0 -45 -4 -45 -15z"/>
<path d="M213 1173 c-13 -2 -23 -11 -23 -19 0 -8 -9 -14 -20 -14 -17 0 -20 -7
-20 -45 l0 -45 104 0 c95 0 104 -2 109 -20 3 -11 12 -20 21 -20 14 0 16 -31
16 -290 l0 -290 40 0 c33 0 40 3 40 20 0 13 7 20 20 20 23 0 23 12 20 341 -1
91 2 182 5 202 l7 37 100 0 c91 0 100 2 105 20 3 11 12 20 19 20 8 0 14 10 14
25 0 18 -5 25 -20 25 -13 0 -20 7 -20 20 0 19 -6 20 -247 19 -137 -1 -258 -4
-270 -6z"/>
<path d="M838 1173 c-17 -4 -18 -30 -18 -354 0 -342 0 -349 20 -349 13 0 20
-7 20 -20 0 -17 7 -20 40 -20 l40 0 0 165 c0 158 1 165 20 165 17 0 20 7 20
41 0 32 4 42 19 46 11 3 21 13 24 24 4 15 14 19 44 19 69 0 83 -8 83 -47 0
-26 5 -36 20 -40 19 -5 20 -14 20 -189 l0 -184 41 0 c32 0 42 4 46 20 3 11 12
20 19 20 11 0 14 35 14 190 0 159 -2 190 -14 190 -10 0 -16 13 -18 38 -2 30
-7 38 -25 40 -15 2 -23 10 -23 23 0 18 -8 19 -105 19 -98 0 -105 -1 -105 -20
0 -17 -7 -20 -40 -20 l-40 0 0 125 0 125 -42 -1 c-24 -1 -51 -3 -60 -6z"/>
<path d="M2483 1161 c-3 -13 -17 -22 -44 -26 -29 -5 -39 -11 -39 -26 0 -12 -7
-19 -20 -19 -16 0 -20 -7 -20 -36 0 -27 -5 -37 -20 -41 -15 -4 -21 -17 -26
-64 -4 -40 -11 -59 -20 -59 -11 0 -14 -20 -14 -85 0 -65 3 -85 14 -85 13 0 26
-48 26 -102 0 -21 5 -28 20 -28 13 0 20 -7 20 -20 0 -13 7 -20 20 -20 13 0 20
-7 20 -20 0 -13 7 -20 20 -20 13 0 20 -7 20 -20 0 -17 7 -20 40 -20 33 0 40
-3 40 -20 0 -19 7 -20 105 -20 98 0 105 1 105 20 0 17 7 20 45 20 38 0 45 3
45 20 0 13 7 20 20 20 13 0 20 7 20 20 0 13 7 20 20 20 17 0 20 7 20 41 0 33
4 42 21 46 17 5 20 11 15 36 -8 40 -7 39 -65 45 l-49 4 -7 -40 c-4 -28 -12
-42 -26 -45 -10 -3 -19 -12 -19 -20 0 -9 -9 -19 -20 -22 -11 -3 -20 -12 -20
-20 0 -18 -33 -25 -122 -25 -70 0 -78 2 -78 19 0 13 -8 21 -22 23 -15 2 -24
11 -26 26 -2 14 -10 22 -23 22 -18 0 -19 9 -19 165 0 158 1 165 20 165 14 0
20 7 20 21 0 12 8 23 20 26 11 3 20 12 20 19 0 8 10 14 25 14 18 0 25 5 25 20
0 18 7 20 60 20 53 0 60 -2 60 -20 0 -15 7 -20 25 -20 15 0 25 -6 25 -14 0 -7
9 -16 20 -19 12 -3 20 -14 20 -26 0 -14 6 -21 20 -21 13 0 20 -7 20 -19 0 -21
39 -33 81 -24 20 4 28 13 33 35 9 45 8 48 -14 48 -17 0 -20 7 -20 40 0 33 -3
40 -20 40 -13 0 -20 7 -20 19 0 15 -10 21 -39 26 -27 4 -41 13 -44 26 -5 18
-15 19 -147 19 -132 0 -142 -1 -147 -19z"/>
<path d="M4733 1160 c-3 -11 -14 -20 -24 -20 -17 0 -19 -8 -19 -85 l0 -85 -40
0 c-40 0 -40 0 -40 -39 0 -37 1 -39 40 -45 l40 -6 0 -205 0 -205 25 0 c18 0
25 -5 25 -20 0 -18 7 -20 69 -20 128 0 149 15 134 93 -5 26 -8 27 -64 27 l-59
0 0 165 0 165 40 6 c39 6 40 8 40 45 0 39 0 39 -40 39 l-39 0 -3 83 c-3 76 -5
82 -25 85 -15 2 -23 10 -23 23 0 25 -30 25 -37 -1z"/>
<path d="M5030 1123 c0 -59 1 -61 30 -66 17 -4 44 -4 61 0 31 6 31 7 27 55 -3
27 -8 51 -11 55 -4 3 -29 8 -57 11 l-50 5 0 -60z"/>
<path d="M6900 1160 c0 -17 -7 -20 -40 -20 -33 0 -40 -3 -40 -20 0 -14 -7 -20
-21 -20 -12 0 -23 -8 -26 -19 -3 -11 -13 -21 -24 -24 -11 -3 -19 -14 -19 -26
0 -14 -6 -21 -20 -21 -19 0 -20 -7 -20 -186 0 -176 1 -186 19 -191 14 -4 21
-15 23 -42 2 -29 8 -37 26 -39 14 -2 22 -10 22 -23 0 -12 7 -19 20 -19 13 0
20 -7 20 -20 0 -18 7 -20 60 -20 53 0 60 -2 60 -20 0 -19 7 -20 105 -20 98 0
105 1 105 20 0 18 7 20 60 20 53 0 60 2 60 20 0 15 7 20 25 20 18 0 25 5 25
20 0 13 7 20 20 20 19 0 20 7 20 124 l0 123 -37 7 c-49 8 -222 8 -262 0 -21
-5 -31 -12 -31 -25 0 -11 6 -19 14 -19 7 0 16 -9 19 -20 5 -18 14 -20 86 -20
l81 0 0 -65 c0 -58 -2 -65 -20 -65 -11 0 -20 -6 -20 -14 0 -18 -45 -26 -156
-26 -86 0 -94 2 -94 19 0 15 -10 21 -40 26 -39 7 -40 8 -40 46 0 32 -3 39 -20
39 -19 0 -20 7 -20 125 0 101 3 125 14 125 9 0 17 15 21 40 5 30 11 40 26 40
12 0 19 7 19 19 0 15 10 20 45 25 29 5 45 12 45 22 0 10 12 14 40 14 28 0 40
-4 40 -14 0 -10 16 -17 45 -22 28 -4 45 -11 45 -20 0 -8 7 -14 15 -14 9 0 15
-9 15 -25 0 -18 5 -25 20 -25 13 0 20 -7 20 -20 0 -17 7 -20 45 -20 38 0 45 3
45 20 0 11 7 20 15 20 8 0 15 9 15 20 0 11 -7 20 -15 20 -11 0 -15 11 -15 40
0 33 -3 40 -19 40 -13 0 -21 8 -23 23 -2 17 -10 23 -39 25 -27 2 -38 9 -42 23
-5 18 -15 19 -151 19 -139 0 -146 -1 -146 -20z"/>
<path d="M9152 816 c2 -200 6 -367 9 -370 3 -3 20 -9 38 -12 27 -6 33 -4 38
15 3 12 13 21 24 21 18 0 19 10 19 185 0 178 1 185 20 185 13 0 20 7 20 19 0
19 34 31 91 31 22 0 29 -5 29 -20 0 -13 7 -20 20 -20 19 0 20 -7 20 -190 0
-186 0 -190 21 -190 12 0 23 -8 26 -20 4 -16 14 -20 44 -20 l39 0 0 223 c0
122 -3 232 -6 244 -3 11 -14 23 -25 26 -11 3 -19 14 -19 26 0 20 -5 21 -120
21 -113 0 -120 -1 -120 -20 0 -13 -7 -20 -20 -20 -19 0 -20 7 -20 94 0 51 -3
108 -6 125 -6 31 -7 31 -66 31 l-59 0 3 -364z"/>
<path d="M9778 1148 c-3 -18 -3 -48 -1 -65 5 -31 8 -33 44 -33 32 0 39 4 39
19 0 10 9 21 20 24 12 3 20 14 20 26 0 14 -6 21 -20 21 -13 0 -20 7 -20 20 0
17 -7 20 -39 20 -36 0 -39 -2 -43 -32z"/>
<path d="M10968 1173 c-10 -2 -18 -11 -18 -19 0 -8 -10 -14 -25 -14 l-25 0 0
-335 0 -335 39 0 c30 0 40 -4 44 -20 5 -19 14 -20 127 -20 113 0 122 1 127 20
4 17 14 20 57 20 65 0 96 9 96 26 0 8 10 14 25 14 20 0 25 5 25 25 0 18 5 25
19 25 15 0 20 10 25 60 5 41 11 60 21 60 20 0 29 77 21 184 -4 61 -11 94 -20
101 -8 6 -17 28 -21 48 -5 27 -12 37 -26 37 -12 0 -19 7 -19 19 0 10 -9 21
-20 24 -11 3 -20 12 -20 20 0 15 -40 27 -91 27 -18 0 -29 5 -29 14 0 9 -21 15
-67 19 -75 8 -218 7 -245 0z m290 -119 c12 -4 22 -13 22 -20 0 -8 9 -14 20
-14 13 0 20 -7 20 -20 0 -13 7 -20 19 -20 16 0 19 -11 24 -87 3 -49 3 -127 0
-175 -5 -77 -8 -88 -24 -88 -12 0 -19 -7 -19 -20 0 -15 -7 -20 -25 -20 -15 0
-25 -6 -25 -14 0 -19 -32 -26 -127 -26 l-83 0 0 248 c0 137 3 252 7 255 8 9
160 9 191 1z"/>
<path d="M12820 1115 l0 -65 40 0 c33 0 40 3 40 20 0 13 7 20 20 20 15 0 20 7
20 25 0 18 -5 25 -20 25 -13 0 -20 7 -20 20 0 17 -7 20 -40 20 l-40 0 0 -65z"/>
<path d="M14813 1160 c-3 -11 -11 -20 -18 -20 -7 0 -15 -18 -19 -40 -4 -25
-12 -40 -21 -40 -9 0 -16 -16 -21 -45 -3 -26 -12 -45 -19 -45 -13 0 -25 -43
-25 -90 0 -19 -6 -29 -20 -33 -16 -4 -20 -14 -20 -46 0 -34 -3 -41 -20 -41
-18 0 -20 -7 -20 -60 0 -53 -2 -60 -20 -60 -17 0 -20 -7 -20 -45 0 -38 -3 -45
-20 -45 -17 0 -20 -7 -20 -40 0 -33 3 -40 20 -40 13 0 20 -7 20 -20 0 -17 7
-20 39 -20 37 0 39 1 45 40 4 24 12 40 20 40 9 0 16 17 20 45 5 27 12 45 20
45 8 0 16 9 19 20 5 20 12 20 149 18 l143 -3 3 -39 c2 -28 9 -40 23 -43 15 -4
19 -14 19 -44 0 -32 3 -39 20 -39 13 0 20 -7 20 -20 0 -17 7 -20 39 -20 35 0
39 3 45 31 3 17 3 62 0 99 -5 55 -10 69 -25 73 -15 4 -19 15 -19 46 0 34 -3
41 -20 41 -17 0 -20 7 -20 45 0 38 -3 45 -20 45 -18 0 -20 7 -20 60 0 53 -2
60 -20 60 -15 0 -20 7 -20 29 0 49 -12 91 -26 91 -8 0 -15 18 -20 45 -5 35
-10 45 -25 45 -12 0 -19 7 -19 20 0 18 -7 20 -61 20 -52 0 -62 -3 -66 -20z
m87 -179 c0 -49 12 -91 26 -91 10 0 14 -13 14 -41 0 -32 4 -42 20 -46 16 -4
20 -14 20 -44 l0 -39 -100 0 -100 0 0 59 c0 50 3 59 20 64 17 4 20 14 20 66 0
54 2 61 20 61 13 0 20 7 20 20 0 13 7 20 20 20 15 0 20 -7 20 -29z"/>
<path d="M1560 951 c0 -16 -8 -20 -37 -23 -31 -2 -39 -7 -41 -25 -2 -13 -9
-23 -17 -23 -20 0 -25 -34 -25 -187 0 -136 1 -143 20 -143 13 0 20 -7 20 -20
0 -13 7 -20 20 -20 13 0 20 -7 20 -20 0 -17 7 -20 39 -20 30 0 40 -4 44 -20 5
-18 14 -20 91 -20 79 0 86 2 86 20 0 17 7 20 40 20 33 0 40 3 40 20 0 14 7 20
21 20 20 0 21 4 17 55 -6 65 -15 78 -35 48 -9 -13 -22 -23 -29 -23 -8 0 -14
-6 -14 -14 0 -9 -15 -17 -39 -21 -27 -4 -41 -13 -44 -26 -4 -15 -14 -19 -46
-19 -34 0 -41 3 -41 20 0 14 -7 20 -21 20 -12 0 -23 8 -26 20 -3 11 -11 20
-18 20 -13 0 -28 66 -19 82 3 4 79 8 170 8 157 0 164 1 164 20 0 13 7 20 20
20 17 0 20 7 20 45 0 38 -3 45 -20 45 -17 0 -20 7 -20 40 0 33 -3 40 -20 40
-13 0 -20 7 -20 20 0 13 -7 20 -20 20 -13 0 -20 7 -20 20 0 19 -7 20 -130 20
-122 0 -130 -1 -130 -19z m177 -80 c3 -11 13 -21 24 -24 11 -3 19 -14 19 -26
0 -12 6 -21 15 -21 8 0 15 -9 15 -20 0 -19 -7 -20 -120 -20 l-120 0 0 40 c0
33 3 40 20 40 15 0 20 7 20 25 0 24 3 25 61 25 51 0 62 -3 66 -19z"/>
<path d="M3070 700 l0 -270 40 0 c33 0 40 3 40 20 0 13 7 20 20 20 19 0 20 7
20 163 0 175 4 207 27 207 8 0 17 9 20 20 4 16 14 20 44 20 28 0 39 -4 39 -15
0 -11 11 -15 40 -15 33 0 40 3 40 20 0 11 7 20 15 20 8 0 15 7 15 15 0 8 -7
15 -15 15 -9 0 -15 9 -15 25 0 25 -1 25 -85 25 -78 0 -85 -2 -85 -20 0 -17 -7
-20 -40 -20 -33 0 -40 3 -40 20 0 17 -7 20 -40 20 l-40 0 0 -270z"/>
<path d="M3570 950 c0 -14 -7 -20 -21 -20 -12 0 -23 -8 -26 -19 -3 -11 -13
-21 -24 -24 -15 -4 -19 -14 -19 -46 0 -28 -4 -41 -14 -41 -16 0 -26 -43 -26
-112 0 -41 3 -51 20 -55 16 -4 20 -14 20 -44 0 -32 4 -39 19 -39 14 0 21 -10
25 -35 6 -31 11 -36 46 -41 30 -5 40 -11 40 -25 0 -17 9 -19 105 -19 98 0 105
1 105 20 0 17 7 20 40 20 33 0 40 3 40 20 0 13 7 20 20 20 17 0 20 7 20 45 l0
45 -41 0 c-33 0 -42 -4 -46 -20 -4 -14 -17 -22 -44 -26 -29 -5 -39 -11 -39
-25 0 -29 -75 -27 -83 1 -4 15 -14 20 -40 20 -34 0 -35 2 -41 45 -5 29 -12 45
-22 45 -8 0 -14 9 -14 20 0 19 7 20 184 20 l183 0 6 38 c4 20 4 67 0 105 -5
56 -9 67 -24 67 -12 0 -19 7 -19 20 0 15 -7 20 -25 20 -18 0 -25 5 -25 20 0
19 -7 20 -140 20 -133 0 -140 -1 -140 -20z m207 -79 c3 -11 13 -21 24 -24 15
-4 19 -14 19 -46 l0 -41 -102 0 c-57 0 -113 3 -125 6 -28 8 -30 34 -3 34 15 0
20 7 20 25 0 18 5 25 20 25 13 0 20 7 20 20 0 18 7 20 61 20 51 0 62 -3 66
-19z"/>
<path d="M4150 950 c0 -13 -7 -20 -20 -20 -13 0 -20 -7 -20 -19 0 -10 -9 -21
-20 -24 -15 -4 -20 -14 -20 -40 0 -31 3 -35 31 -41 17 -3 44 -6 60 -6 24 0 29
4 29 25 0 18 5 25 19 25 10 0 21 9 24 20 4 17 13 20 64 20 97 0 103 -4 103
-65 0 -51 -1 -53 -31 -59 -17 -3 -52 -6 -78 -6 -60 0 -91 -9 -91 -26 0 -10
-13 -14 -45 -14 -38 0 -45 -3 -45 -20 0 -13 -7 -20 -19 -20 -14 0 -20 -10 -25
-43 -8 -55 3 -127 19 -127 7 0 15 -9 18 -20 3 -12 14 -20 26 -20 14 0 21 -6
21 -20 0 -18 7 -20 81 -20 72 0 81 2 86 20 4 16 14 20 44 20 32 0 39 3 39 20
0 13 7 20 20 20 13 0 20 -7 20 -20 0 -13 7 -20 20 -20 13 0 20 -7 20 -20 0
-15 7 -20 25 -20 18 0 25 5 25 20 0 13 7 20 20 20 17 0 20 7 20 41 0 32 -4 42
-20 46 -19 5 -20 14 -20 158 0 180 -5 215 -31 215 -12 0 -19 7 -19 20 0 19 -7
20 -165 20 -158 0 -165 -1 -165 -20z m250 -309 l0 -79 -39 -7 c-27 -4 -41 -13
-44 -26 -7 -28 -77 -27 -84 1 -3 11 -14 20 -24 20 -16 0 -19 8 -19 45 0 38 3
45 20 45 13 0 20 7 20 20 0 18 7 20 65 20 58 0 65 2 65 20 0 13 7 20 20 20 18
0 20 -7 20 -79z"/>
<path d="M5026 939 c-3 -17 -6 -130 -6 -250 0 -208 1 -219 19 -219 10 0 21 -9
24 -20 3 -12 14 -20 26 -20 14 0 21 6 21 20 0 13 7 20 20 20 19 0 20 7 20 250
l0 250 -59 0 c-58 0 -59 -1 -65 -31z"/>
<path d="M5270 923 c0 -71 11 -123 25 -123 15 0 25 -31 25 -78 0 -25 5 -35 20
-39 16 -4 20 -14 20 -49 0 -37 3 -44 20 -44 17 0 20 -7 20 -40 0 -33 3 -40 19
-40 15 0 21 -10 26 -40 7 -39 8 -40 46 -40 32 0 39 3 39 20 0 13 7 20 20 20
13 0 20 7 20 19 0 10 9 21 20 24 17 4 20 14 20 60 0 46 3 55 20 60 16 4 20 14
20 45 0 31 4 41 20 45 15 4 20 14 20 39 0 48 10 78 26 78 11 0 14 16 14 65 l0
65 -40 0 c-33 0 -40 -3 -40 -20 0 -13 -7 -20 -20 -20 -17 0 -20 -7 -20 -45 0
-38 -3 -45 -20 -45 -18 0 -20 -7 -20 -60 0 -53 -2 -60 -20 -60 -15 0 -20 -7
-20 -29 0 -87 -33 -124 -45 -51 -5 30 -11 40 -26 40 -17 0 -19 8 -19 60 0 53
-2 60 -20 60 -16 0 -20 7 -20 38 0 52 -10 82 -26 82 -8 0 -14 10 -14 25 0 23
-4 25 -45 25 l-45 0 0 -47z"/>
<path d="M5940 951 c0 -15 -10 -21 -40 -26 -38 -6 -40 -9 -40 -41 0 -27 -4
-34 -20 -34 -19 0 -20 -7 -20 -145 0 -138 1 -145 20 -145 15 0 20 -7 20 -25 0
-18 5 -25 20 -25 13 0 20 -7 20 -20 0 -17 7 -20 40 -20 33 0 40 -3 40 -20 0
-19 7 -20 105 -20 96 0 105 2 105 19 0 14 10 20 40 25 35 5 40 10 46 41 5 26
11 35 26 35 29 0 20 44 -9 48 -13 2 -23 10 -23 18 0 21 -27 17 -33 -6 -3 -12
-14 -20 -26 -20 -14 0 -21 -6 -21 -20 0 -13 -7 -20 -20 -20 -11 0 -20 -6 -20
-14 0 -14 -42 -26 -91 -26 -22 0 -29 5 -29 20 0 15 -7 20 -25 20 -18 0 -25 5
-25 19 0 10 -9 21 -20 24 -16 4 -20 14 -20 46 l0 41 184 0 184 0 6 31 c3 17 6
54 6 81 0 41 -4 51 -19 55 -12 3 -21 17 -25 39 -6 28 -12 34 -40 40 -22 4 -36
13 -39 25 -5 17 -16 19 -131 19 -117 0 -126 -1 -126 -19z m179 -67 c21 -5 31
-12 31 -25 0 -12 7 -19 20 -19 17 0 20 -7 20 -40 l0 -40 -125 0 c-120 0 -125
1 -125 21 0 12 8 23 19 26 12 3 21 17 25 38 4 20 14 36 24 38 27 7 77 8 111 1z"/>
<path d="M7508 963 c-17 -4 -18 -25 -18 -249 0 -237 1 -244 20 -244 13 0 20
-7 20 -20 0 -17 7 -20 40 -20 l40 0 0 145 c0 137 1 145 20 145 16 0 19 8 22
63 3 56 5 62 26 65 12 2 22 10 22 18 0 9 11 14 35 14 24 0 35 -5 35 -15 0 -11
12 -15 46 -15 l47 0 -5 50 c-3 28 -8 54 -12 58 -4 4 -50 9 -102 10 -90 4 -94
3 -94 -17 0 -14 -6 -21 -20 -21 -13 0 -20 7 -20 20 0 17 -6 20 -42 19 -24 -1
-51 -3 -60 -6z"/>
<path d="M7990 950 c0 -15 -7 -20 -25 -20 -18 0 -25 -5 -25 -20 0 -13 -7 -20
-20 -20 -17 0 -20 -7 -20 -39 0 -36 2 -39 34 -45 46 -9 83 1 89 25 3 11 14 19
26 19 15 0 21 6 21 21 0 20 4 21 74 17 41 -2 78 -7 82 -11 10 -10 11 -94 1
-104 -5 -4 -42 -9 -84 -11 -64 -4 -76 -7 -80 -23 -5 -16 -15 -19 -64 -19 -52
0 -59 -2 -59 -20 0 -13 -7 -20 -20 -20 -18 0 -20 -7 -20 -85 0 -78 2 -85 20
-85 13 0 20 -7 20 -20 0 -13 7 -20 19 -20 10 0 21 -9 24 -20 5 -18 14 -20 86
-20 74 0 81 2 81 20 0 17 7 20 40 20 33 0 40 3 40 20 0 13 7 20 20 20 13 0 20
-7 20 -20 0 -15 7 -20 25 -20 18 0 25 -5 25 -20 0 -16 7 -20 34 -20 30 0 34 4
40 31 14 72 3 169 -20 169 -11 0 -14 29 -14 150 l0 150 -25 0 c-18 0 -25 5
-25 20 0 19 -7 20 -160 20 -153 0 -160 -1 -160 -20z m245 -270 c4 -22 4 -58 0
-80 -6 -37 -10 -40 -46 -46 -29 -5 -39 -11 -39 -25 0 -15 -8 -19 -40 -19 -33
0 -40 3 -40 20 0 13 -7 20 -20 20 -17 0 -20 7 -20 45 0 32 4 45 14 45 7 0 16
9 19 20 4 17 14 20 67 20 53 0 63 3 67 20 9 34 31 22 38 -20z"/>
<path d="M8522 618 l3 -353 43 -3 42 -3 0 125 c0 119 1 126 20 126 11 0 20 -6
20 -14 0 -9 15 -17 39 -21 27 -4 41 -13 44 -26 5 -17 14 -19 81 -19 69 0 76 2
76 20 0 15 7 20 25 20 18 0 25 5 25 20 0 13 7 20 20 20 14 0 20 7 20 21 0 12
8 23 19 26 25 6 31 41 31 175 0 102 -2 110 -20 115 -14 4 -22 17 -26 44 -6 36
-9 39 -39 39 -24 0 -34 5 -38 20 -5 18 -14 20 -106 20 -94 0 -101 -1 -101 -20
0 -11 -6 -20 -14 -20 -7 0 -28 -3 -45 -6 -28 -6 -31 -4 -31 20 0 24 -3 26 -45
26 l-45 0 2 -352z m298 252 c0 -13 7 -20 20 -20 14 0 20 -7 20 -21 0 -12 8
-23 20 -26 18 -5 20 -14 20 -104 0 -92 -1 -99 -20 -99 -15 0 -20 -7 -20 -25 0
-25 -1 -25 -85 -25 -78 0 -85 2 -85 20 0 13 -7 20 -20 20 -19 0 -20 7 -20 125
0 120 1 125 21 125 12 0 23 8 26 19 6 23 21 28 81 30 36 1 42 -2 42 -19z"/>
<path d="M9777 963 c-9 -8 -9 -460 -1 -502 6 -28 10 -31 45 -31 32 0 39 3 39
20 0 13 7 20 20 20 19 0 20 7 20 230 0 223 -1 230 -20 230 -13 0 -20 7 -20 20
0 17 -7 20 -38 20 -21 0 -42 -3 -45 -7z"/>
<path d="M10150 950 c0 -17 -7 -20 -40 -20 -36 0 -40 -2 -40 -25 0 -18 -5 -25
-19 -25 -16 0 -20 -11 -26 -84 -3 -46 -3 -120 0 -165 7 -70 10 -81 26 -81 12
0 19 -7 19 -20 0 -13 7 -20 20 -20 13 0 20 -7 20 -20 0 -17 7 -20 40 -20 33 0
40 -3 40 -20 0 -18 7 -20 85 -20 78 0 85 2 85 20 0 17 7 20 41 20 32 0 42 4
46 19 3 11 13 21 24 24 11 3 19 14 19 26 0 12 6 21 15 21 10 0 15 10 15 34 0
37 -15 46 -82 46 -34 0 -38 -3 -38 -25 0 -18 -5 -25 -20 -25 -13 0 -20 -7 -20
-20 0 -18 -7 -20 -85 -20 -78 0 -85 2 -85 20 0 13 -7 20 -20 20 -19 0 -20 7
-20 125 0 120 1 125 21 125 12 0 23 8 26 20 6 24 55 35 118 26 36 -6 45 -11
45 -27 0 -12 7 -19 20 -19 13 0 20 -7 20 -20 0 -13 7 -20 20 -20 11 0 20 -7
20 -15 0 -8 9 -15 20 -15 12 0 20 7 20 16 0 9 9 18 20 21 23 6 27 33 6 33 -9
0 -17 15 -21 40 -6 37 -10 40 -46 46 -29 5 -39 11 -39 25 0 18 -10 19 -125 19
-118 0 -125 -1 -125 -20z"/>
<path d="M11758 963 c-10 -2 -18 -11 -18 -19 0 -8 -10 -14 -25 -14 -18 0 -25
-5 -25 -19 0 -11 -9 -23 -20 -26 -16 -5 -20 -15 -20 -46 0 -32 -3 -39 -20 -39
-18 0 -20 -7 -20 -81 0 -72 2 -81 20 -86 16 -4 20 -14 20 -44 0 -32 3 -39 20
-39 13 0 20 -7 20 -20 0 -13 7 -20 20 -20 13 0 20 -7 20 -20 0 -14 7 -20 24
-20 15 0 26 -7 29 -20 5 -18 14 -20 102 -20 88 0 97 2 102 20 4 16 14 20 44
20 32 0 39 3 39 20 0 13 7 20 20 20 16 0 20 7 20 38 0 20 -3 47 -6 60 -7 25
-34 31 -34 7 0 -9 -9 -15 -21 -15 -12 0 -23 -8 -26 -20 -4 -14 -17 -22 -44
-26 -29 -5 -39 -11 -39 -25 0 -29 -75 -27 -83 1 -4 15 -14 20 -41 20 -33 0
-36 3 -36 28 0 15 -3 44 -6 65 l-7 37 172 0 171 0 0 105 c0 98 -1 105 -20 105
-13 0 -20 7 -20 20 0 15 -7 20 -25 20 -18 0 -25 5 -25 20 0 19 -6 20 -122 19
-68 -1 -131 -3 -140 -6z m182 -92 c0 -13 8 -21 23 -23 18 -2 23 -10 25 -45 l3
-43 -112 0 -111 0 6 31 c3 17 6 38 6 45 0 8 9 14 20 14 13 0 20 7 20 20 0 18
7 20 60 20 53 0 60 -2 60 -19z"/>
<path d="M12313 950 c-3 -11 -14 -20 -24 -20 -12 0 -19 -7 -19 -19 0 -10 -9
-21 -20 -24 -17 -4 -20 -14 -20 -62 0 -48 3 -58 19 -62 11 -3 21 -13 24 -24 3
-11 14 -19 26 -19 14 0 21 -6 21 -20 0 -18 7 -20 80 -20 73 0 80 -2 80 -20 0
-15 7 -20 25 -20 18 0 25 -5 25 -20 0 -11 7 -20 15 -20 8 0 15 -9 15 -20 0
-14 -9 -21 -35 -26 -25 -4 -35 -11 -35 -25 0 -16 -7 -19 -41 -19 -32 0 -42 4
-46 20 -3 11 -14 20 -24 20 -12 0 -19 7 -19 20 0 13 -7 20 -20 20 -15 0 -20 7
-20 26 0 23 -3 25 -42 22 l-43 -3 0 -60 c0 -55 2 -60 23 -63 14 -2 22 -10 22
-23 0 -16 7 -19 40 -19 33 0 40 -3 40 -20 0 -19 7 -20 101 -20 92 0 101 2 106
20 3 11 14 20 24 20 12 0 19 7 19 20 0 13 7 20 20 20 13 0 20 7 20 20 0 13 7
20 20 20 18 0 20 7 20 59 0 50 -3 59 -20 64 -12 3 -20 14 -20 26 0 18 -6 21
-39 21 -30 0 -40 4 -44 20 -4 17 -14 20 -59 20 -67 0 -98 9 -98 26 0 8 -10 14
-25 14 -23 0 -25 4 -25 45 l0 46 83 -3 c76 -3 82 -5 85 -25 2 -15 10 -23 23
-23 12 0 19 -7 19 -20 0 -17 7 -20 40 -20 l40 0 0 65 0 65 -40 0 c-33 0 -40 3
-40 20 0 19 -7 20 -126 20 -117 0 -126 -1 -131 -20z"/>
<path d="M12818 923 c-6 -118 -6 -188 -1 -335 l5 -158 39 0 c32 0 39 3 39 20
0 13 7 20 20 20 19 0 20 7 20 250 l0 250 -60 0 -60 0 -2 -47z"/>
<path d="M13150 950 c0 -13 -7 -20 -20 -20 -13 0 -20 -7 -20 -20 0 -13 -7 -20
-20 -20 -18 0 -20 -7 -20 -61 0 -52 -3 -62 -20 -66 -22 -6 -28 -43 -6 -43 16
0 26 -43 26 -116 0 -47 2 -54 20 -54 13 0 20 -7 20 -20 0 -13 7 -20 20 -20 13
0 20 -7 20 -20 0 -17 7 -20 45 -20 33 0 45 -4 45 -15 0 -10 11 -15 35 -15 24
0 35 5 35 15 0 11 12 15 45 15 38 0 45 3 45 20 0 15 7 20 26 20 24 0 26 -3 20
-31 -3 -17 -6 -44 -6 -60 0 -19 -6 -30 -20 -34 -11 -3 -20 -15 -20 -26 0 -17
-8 -19 -77 -19 -95 0 -120 6 -126 31 -3 11 -14 19 -26 19 -15 0 -21 6 -21 21
0 19 -4 21 -32 15 -41 -8 -40 -7 -46 -65 l-4 -49 41 -7 c31 -5 41 -11 41 -26
0 -17 8 -19 85 -19 69 0 85 -3 85 -15 0 -8 9 -15 20 -15 11 0 20 7 20 15 0 12
13 15 61 15 52 0 62 3 66 20 3 11 14 20 24 20 14 0 19 7 19 25 0 18 5 25 20
25 20 0 20 7 20 310 l0 310 -37 0 c-53 0 -83 -10 -83 -26 0 -8 -10 -14 -25
-14 -15 0 -25 6 -25 14 0 18 -45 26 -156 26 -87 0 -94 -1 -94 -20z m217 -80
c3 -11 12 -20 20 -20 8 0 17 -9 20 -20 3 -11 11 -20 18 -20 18 0 27 -70 19
-146 -6 -53 -10 -64 -25 -64 -12 0 -19 -7 -19 -19 0 -23 -26 -31 -103 -31 -50
0 -60 3 -64 19 -3 11 -13 21 -24 24 -17 5 -19 15 -19 104 0 115 6 140 31 148
10 4 19 12 19 20 0 16 20 22 78 24 36 1 45 -3 49 -19z"/>
<path d="M13730 950 c0 -11 -7 -20 -15 -20 -13 0 -15 -32 -15 -224 0 -215 1
-224 20 -229 12 -3 20 -14 20 -26 0 -18 6 -21 40 -21 l40 0 0 40 c0 33 3 40
20 40 19 0 20 7 20 166 0 155 1 166 19 171 11 3 21 14 24 24 5 18 13 20 64 17
51 -3 58 -6 61 -25 2 -15 10 -23 22 -23 18 0 19 -12 22 -194 2 -107 6 -197 9
-200 3 -3 20 -9 37 -12 28 -6 32 -4 32 15 0 14 6 21 20 21 19 0 20 7 20 206 0
197 -1 206 -20 211 -11 3 -20 14 -20 24 0 12 -7 19 -20 19 -13 0 -20 7 -20 20
0 19 -7 20 -105 20 -96 0 -105 -2 -105 -19 0 -13 -10 -20 -31 -25 -47 -9 -49
-8 -49 19 0 23 -4 25 -45 25 -38 0 -45 -3 -45 -20z"/>
<path d="M15400 950 c0 -13 -7 -20 -20 -20 -13 0 -20 -7 -20 -20 0 -13 -7 -20
-20 -20 -14 0 -20 -7 -20 -24 0 -15 -7 -26 -20 -29 -18 -5 -20 -14 -20 -106 0
-81 3 -101 14 -101 10 0 19 -19 26 -54 8 -39 16 -55 30 -59 11 -3 20 -12 20
-20 0 -17 29 -27 81 -27 28 0 38 -5 42 -20 3 -11 10 -20 17 -20 7 0 14 9 17
20 4 15 14 20 42 20 51 0 81 10 81 26 0 8 9 14 20 14 17 0 20 -7 20 -40 0 -28
-4 -40 -14 -40 -9 0 -17 -15 -21 -39 -7 -43 -25 -51 -110 -51 -71 0 -105 10
-105 31 0 12 -7 19 -20 19 -13 0 -20 7 -20 20 0 17 -7 20 -40 20 l-40 0 0 -65
c0 -58 2 -65 20 -65 13 0 20 -7 20 -20 0 -19 7 -20 163 -20 172 0 207 5 207
25 0 8 10 15 23 17 18 2 23 10 25 46 2 28 8 42 17 42 9 0 16 16 20 42 9 58 2
514 -8 524 -4 4 -32 9 -62 12 l-55 4 0 -41 c0 -44 -23 -59 -33 -21 -3 12 -14
20 -26 20 -14 0 -21 6 -21 20 0 19 -7 20 -105 20 -98 0 -105 -1 -105 -20z
m210 -80 c0 -13 7 -20 20 -20 15 0 20 -7 20 -25 0 -18 5 -25 20 -25 18 0 20
-7 20 -79 0 -70 -2 -79 -20 -84 -12 -3 -20 -14 -20 -26 0 -12 -6 -21 -14 -21
-7 0 -16 -9 -19 -20 -4 -17 -14 -20 -71 -20 -59 0 -66 2 -66 20 0 13 -7 20
-20 20 -17 0 -20 7 -20 40 0 28 -4 40 -14 40 -22 0 -28 16 -20 55 3 20 12 35
20 35 10 0 14 13 14 41 0 32 4 42 19 46 11 3 21 13 24 24 4 16 15 19 66 19 54
0 61 -2 61 -20z"/>
<path d="M16030 950 c0 -15 -7 -20 -25 -20 -18 0 -25 -5 -25 -19 0 -10 -9 -21
-20 -24 -12 -3 -20 -14 -20 -26 0 -12 -6 -21 -14 -21 -20 0 -26 -32 -26 -143
0 -89 2 -99 19 -104 13 -3 22 -17 26 -44 5 -29 11 -39 26 -39 12 0 19 -7 19
-20 0 -17 7 -20 40 -20 33 0 40 -3 40 -20 0 -19 7 -20 101 -20 92 0 101 2 106
20 4 16 14 20 44 20 32 0 39 3 39 20 0 13 7 20 20 20 17 0 20 7 20 45 0 43 -1
45 -29 45 -57 0 -91 -12 -91 -31 0 -14 -7 -19 -25 -19 -15 0 -25 -6 -25 -14 0
-8 -12 -17 -26 -20 -36 -9 -94 3 -94 20 0 8 -9 14 -20 14 -15 0 -20 7 -20 25
0 18 -5 25 -20 25 -17 0 -20 7 -20 40 l0 40 185 0 185 0 0 100 c0 93 -1 100
-20 100 -15 0 -20 7 -20 25 0 23 -4 25 -40 25 -33 0 -40 3 -40 20 0 19 -7 20
-125 20 -118 0 -125 -1 -125 -20z m177 -66 c11 -3 23 -14 26 -25 3 -11 14 -19
26 -19 18 0 21 -6 21 -40 l0 -40 -125 0 c-118 0 -125 1 -125 20 0 13 7 20 20
20 15 0 20 7 20 25 0 18 5 25 20 25 13 0 20 7 20 20 0 16 7 20 38 20 20 0 47
-3 59 -6z"/>
<path d="M16530 720 c0 -243 1 -250 20 -250 14 0 20 -7 20 -21 0 -17 5 -20 38
-17 l37 3 3 183 c2 174 4 184 22 189 11 3 20 14 20 24 0 12 7 19 19 19 10 0
21 9 24 20 5 21 36 26 96 14 l31 -6 0 -204 c0 -197 1 -204 20 -204 13 0 20 -7
20 -20 0 -17 7 -20 39 -20 35 0 39 3 45 31 3 17 6 116 6 219 0 216 -4 250 -31
250 -12 0 -19 7 -19 20 0 19 -7 20 -97 20 -111 0 -143 -6 -143 -26 0 -8 -10
-14 -25 -14 -18 0 -25 5 -25 20 0 18 -7 20 -60 20 l-60 0 0 -250z"/>
<path d="M17240 950 c0 -15 -7 -20 -25 -20 -18 0 -25 -5 -25 -19 0 -10 -9 -21
-20 -24 -16 -4 -20 -14 -20 -46 0 -34 -3 -41 -20 -41 -19 0 -20 -7 -20 -100 0
-91 2 -100 19 -100 15 0 20 -10 25 -45 6 -36 11 -45 27 -45 12 0 19 -7 19 -20
0 -17 7 -20 40 -20 33 0 40 -3 40 -20 0 -19 7 -20 101 -20 92 0 101 2 106 20
4 16 14 20 44 20 32 0 39 3 39 20 0 13 7 20 20 20 18 0 20 7 20 65 l0 65 -40
0 c-33 0 -40 -3 -40 -20 0 -13 -7 -20 -20 -20 -13 0 -22 -9 -26 -25 -6 -24
-10 -25 -74 -25 -37 0 -82 3 -99 6 -28 6 -31 10 -31 41 0 26 -5 36 -20 40 -17
5 -20 14 -20 64 0 45 4 59 14 59 10 0 17 16 22 45 5 35 10 45 25 45 12 0 19 7
19 20 0 18 7 20 61 20 51 0 62 -3 66 -19 3 -11 13 -21 24 -24 11 -3 19 -14 19
-26 0 -14 6 -21 20 -21 13 0 20 -7 20 -20 0 -12 7 -20 16 -20 9 0 18 9 21 20
3 11 14 20 24 20 16 0 19 8 19 45 0 38 -3 45 -20 45 -13 0 -20 7 -20 20 0 13
-7 20 -19 20 -10 0 -21 9 -24 20 -5 19 -14 20 -146 20 -134 0 -141 -1 -141
-20z"/>
<path d="M17690 921 c0 -67 10 -111 26 -111 8 0 15 -18 20 -45 3 -26 12 -45
19 -45 15 0 25 -31 25 -82 0 -31 4 -38 20 -38 17 0 20 -7 20 -45 0 -38 3 -45
20 -45 17 0 20 -7 20 -45 0 -32 -4 -45 -14 -45 -8 0 -18 -16 -23 -37 l-9 -38
-77 -3 -77 -3 0 -39 c0 -40 0 -40 40 -40 29 0 40 -4 40 -15 0 -8 7 -15 15 -15
8 0 15 7 15 15 0 12 14 15 65 15 58 0 65 2 65 20 0 13 7 20 19 20 14 0 20 10
25 39 4 27 12 40 26 44 16 4 20 13 20 46 0 28 4 41 14 41 15 0 26 42 26 96 0
27 4 34 20 34 18 0 20 7 20 60 0 53 2 60 20 60 17 0 20 7 20 39 0 29 4 40 19
44 14 3 19 17 23 62 8 92 2 105 -43 105 -32 0 -39 -3 -39 -20 0 -13 -7 -20
-20 -20 -18 0 -20 -7 -20 -61 0 -52 -3 -62 -20 -66 -14 -4 -20 -14 -20 -33 0
-47 -12 -90 -25 -90 -8 0 -16 -18 -20 -40 -9 -53 -33 -53 -41 0 -4 22 -12 40
-19 40 -14 0 -25 44 -25 96 0 27 -4 34 -20 34 -18 0 -20 7 -20 60 0 53 -2 60
-20 60 -13 0 -20 7 -20 20 0 17 -7 20 -45 20 l-45 0 0 -49z"/>
</g>
</svg>
